<svg width="15" height="16" viewBox="0 0 15 16" fill="none" xmlns="http://www.w3.org/2000/svg">
<path fill-rule="evenodd" clip-rule="evenodd" d="M14.6778 7.83721C14.6778 3.86151 11.4549 0.638565 7.47915 0.638565C3.50345 0.638565 0.280509 3.86151 0.280509 7.83721C0.280509 11.8129 3.50345 15.0359 7.47915 15.0359C11.4549 15.0359 14.6778 11.8129 14.6778 7.83721ZM6.84398 3.60271C6.84398 3.25191 7.12836 2.96754 7.47915 2.96754C7.82995 2.96754 8.11433 3.25191 8.11433 3.60271V7.83721C8.11433 8.05621 8.00151 8.25976 7.81579 8.37583L5.2751 9.96377C4.97762 10.1497 4.58575 10.0593 4.39983 9.76179C4.21391 9.46431 4.30434 9.07244 4.60181 8.88652L6.84398 7.48516V3.60271Z" fill="black"/>
</svg>
