<svg width="998" height="277" viewBox="0 0 998 277" fill="none" xmlns="http://www.w3.org/2000/svg">
<g clip-path="url(#clip0_11_470)">
<rect width="998" height="277" rx="20" fill="white" fill-opacity="0.4"/>
<g clip-path="url(#clip1_11_470)">
<path d="M-3 112C-3 112 105.292 117.109 173.338 128.55C225.708 137.355 252.955 154.951 305.591 158.546C358.227 162.141 387.373 147.492 440.164 147.168C505.887 146.764 541.876 160.831 607.573 162.494C683.844 164.426 726.399 149.598 802.632 152.49C876.604 155.297 924.042 160.531 996 176" stroke="#0FB3BB" stroke-width="2.04712"/>
<path d="M36.9401 100.649V99.5093L40.4665 95.8556C40.8431 95.4587 41.1535 95.111 41.3978 94.8125C41.6454 94.5105 41.8303 94.2239 41.9524 93.9525C42.0746 93.6811 42.1356 93.3927 42.1356 93.0874C42.1356 92.7413 42.0542 92.4428 41.8914 92.1918C41.7285 91.9373 41.5063 91.7423 41.2248 91.6066C40.9432 91.4675 40.626 91.3979 40.2732 91.3979C39.9 91.3979 39.5743 91.4743 39.2961 91.6269C39.0179 91.7796 38.8042 91.995 38.655 92.2732C38.5057 92.5514 38.431 92.877 38.431 93.2502H36.9299C36.9299 92.6158 37.0758 92.0612 37.3675 91.5862C37.6593 91.1113 38.0596 90.7432 38.5684 90.482C39.0773 90.2173 39.6557 90.085 40.3037 90.085C40.9584 90.085 41.5352 90.2156 42.0339 90.4769C42.5359 90.7347 42.9278 91.0875 43.2094 91.5353C43.4909 91.9797 43.6317 92.4818 43.6317 93.0416C43.6317 93.4283 43.5588 93.8066 43.4129 94.1764C43.2704 94.5461 43.0211 94.9583 42.6649 95.4129C42.3087 95.8641 41.8134 96.412 41.179 97.0566L39.1078 99.2244V99.3007H43.7996V100.649H36.9401ZM49.3667 100.792C48.9019 100.785 48.444 100.7 47.9928 100.537C47.5449 100.374 47.1379 100.103 46.7715 99.7231C46.4051 99.3431 46.1116 98.8325 45.8911 98.1914C45.674 97.5502 45.5654 96.7496 45.5654 95.7895C45.5654 94.8803 45.6553 94.0729 45.8351 93.3673C46.0183 92.6616 46.2812 92.0662 46.6239 91.5811C46.9665 91.0926 47.3804 90.7211 47.8655 90.4667C48.3507 90.2123 48.8952 90.085 49.499 90.085C50.1198 90.085 50.6711 90.2072 51.1529 90.4514C51.6346 90.6957 52.0247 91.0332 52.3233 91.4641C52.6252 91.8949 52.8169 92.3851 52.8983 92.9347H51.3462C51.2411 92.5005 51.0324 92.146 50.7203 91.8712C50.4082 91.5964 50.0011 91.459 49.499 91.459C48.7357 91.459 48.1403 91.7915 47.7129 92.4564C47.2888 93.1213 47.0751 94.0458 47.0717 95.2297H47.148C47.3278 94.9346 47.5483 94.6835 47.8096 94.4766C48.0742 94.2663 48.3693 94.1051 48.695 93.9932C49.0241 93.8778 49.3701 93.8202 49.7331 93.8202C50.337 93.8202 50.8832 93.9677 51.3717 94.2629C51.8636 94.5546 52.2554 94.9583 52.5472 95.474C52.8389 95.9896 52.9848 96.5799 52.9848 97.2449C52.9848 97.9098 52.8338 98.512 52.5319 99.0514C52.2334 99.5908 51.8127 100.018 51.2699 100.334C50.7271 100.646 50.0927 100.798 49.3667 100.792ZM49.3616 99.4686C49.7619 99.4686 50.1198 99.3703 50.4353 99.1735C50.7508 98.9767 51.0002 98.7121 51.1834 98.3797C51.3666 98.0472 51.4582 97.6757 51.4582 97.2652C51.4582 96.8649 51.3683 96.5002 51.1885 96.1711C51.0121 95.8421 50.7678 95.5809 50.4557 95.3875C50.147 95.1941 49.7942 95.0974 49.3972 95.0974C49.0953 95.0974 48.8154 95.1551 48.5576 95.2704C48.3032 95.3858 48.0793 95.5452 47.8859 95.7488C47.6925 95.9523 47.5399 96.1864 47.4279 96.451C47.3193 96.7122 47.2651 96.9887 47.2651 97.2805C47.2651 97.6706 47.355 98.0319 47.5348 98.3644C47.718 98.6969 47.9673 98.9649 48.2828 99.1684C48.6017 99.3686 48.9613 99.4686 49.3616 99.4686ZM57.1028 94.9397C56.6618 94.9397 56.2598 94.8328 55.8968 94.6191C55.5372 94.402 55.2489 94.1119 55.0317 93.7489C54.818 93.3859 54.7111 92.9839 54.7111 92.5429C54.7111 92.1019 54.818 91.7016 55.0317 91.3419C55.2489 90.979 55.5372 90.6906 55.8968 90.4769C56.2598 90.2597 56.6618 90.1512 57.1028 90.1512C57.5439 90.1512 57.9459 90.2597 58.3089 90.4769C58.6719 90.6906 58.9602 90.979 59.174 91.3419C59.3911 91.7016 59.4996 92.1019 59.4996 92.5429C59.4996 92.9839 59.3911 93.3859 59.174 93.7489C58.9602 94.1119 58.6719 94.402 58.3089 94.6191C57.9459 94.8328 57.5439 94.9397 57.1028 94.9397ZM57.1028 93.7794C57.3335 93.7794 57.5422 93.7235 57.7288 93.6115C57.9153 93.4996 58.0629 93.3503 58.1715 93.1637C58.2834 92.9771 58.3394 92.7702 58.3394 92.5429C58.3394 92.3156 58.2834 92.1087 58.1715 91.9221C58.0629 91.7355 57.9153 91.5879 57.7288 91.4793C57.5422 91.3674 57.3335 91.3114 57.1028 91.3114C56.8755 91.3114 56.6686 91.3674 56.482 91.4793C56.2954 91.5879 56.1462 91.7355 56.0342 91.9221C55.9257 92.1087 55.8714 92.3156 55.8714 92.5429C55.8714 92.7702 55.9257 92.9771 56.0342 93.1637C56.1462 93.3503 56.2954 93.4996 56.482 93.6115C56.6686 93.7235 56.8755 93.7794 57.1028 93.7794Z" fill="black"/>
<path d="M134.179 112.932V111.792L137.705 108.138C138.082 107.741 138.392 107.394 138.636 107.095C138.884 106.793 139.069 106.507 139.191 106.235C139.313 105.964 139.374 105.675 139.374 105.37C139.374 105.024 139.293 104.726 139.13 104.474C138.967 104.22 138.745 104.025 138.463 103.889C138.182 103.75 137.865 103.681 137.512 103.681C137.139 103.681 136.813 103.757 136.535 103.91C136.256 104.062 136.043 104.278 135.893 104.556C135.744 104.834 135.67 105.16 135.67 105.533H134.168C134.168 104.899 134.314 104.344 134.606 103.869C134.898 103.394 135.298 103.026 135.807 102.765C136.316 102.5 136.894 102.368 137.542 102.368C138.197 102.368 138.774 102.498 139.272 102.76C139.774 103.017 140.166 103.37 140.448 103.818C140.729 104.262 140.87 104.765 140.87 105.324C140.87 105.711 140.797 106.089 140.651 106.459C140.509 106.829 140.26 107.241 139.903 107.696C139.547 108.147 139.052 108.695 138.417 109.339L136.346 111.507V111.583H141.038V112.932H134.179ZM146.605 113.074C146.14 113.068 145.682 112.983 145.231 112.82C144.783 112.657 144.376 112.386 144.01 112.006C143.644 111.626 143.35 111.115 143.13 110.474C142.913 109.833 142.804 109.032 142.804 108.072C142.804 107.163 142.894 106.356 143.074 105.65C143.257 104.944 143.52 104.349 143.862 103.864C144.205 103.375 144.619 103.004 145.104 102.749C145.589 102.495 146.134 102.368 146.738 102.368C147.358 102.368 147.91 102.49 148.391 102.734C148.873 102.978 149.263 103.316 149.562 103.747C149.864 104.178 150.055 104.668 150.137 105.217H148.585C148.48 104.783 148.271 104.429 147.959 104.154C147.647 103.879 147.24 103.742 146.738 103.742C145.974 103.742 145.379 104.074 144.951 104.739C144.527 105.404 144.314 106.328 144.31 107.512H144.387C144.566 107.217 144.787 106.966 145.048 106.759C145.313 106.549 145.608 106.388 145.934 106.276C146.263 106.161 146.609 106.103 146.972 106.103C147.575 106.103 148.122 106.25 148.61 106.546C149.102 106.837 149.494 107.241 149.786 107.757C150.077 108.272 150.223 108.863 150.223 109.528C150.223 110.193 150.072 110.795 149.77 111.334C149.472 111.873 149.051 112.301 148.508 112.616C147.966 112.929 147.331 113.081 146.605 113.074ZM146.6 111.751C147 111.751 147.358 111.653 147.674 111.456C147.989 111.259 148.239 110.995 148.422 110.662C148.605 110.33 148.697 109.958 148.697 109.548C148.697 109.148 148.607 108.783 148.427 108.454C148.251 108.125 148.006 107.864 147.694 107.67C147.386 107.477 147.033 107.38 146.636 107.38C146.334 107.38 146.054 107.438 145.796 107.553C145.542 107.669 145.318 107.828 145.124 108.031C144.931 108.235 144.778 108.469 144.666 108.734C144.558 108.995 144.504 109.271 144.504 109.563C144.504 109.953 144.593 110.315 144.773 110.647C144.956 110.98 145.206 111.248 145.521 111.451C145.84 111.651 146.2 111.751 146.6 111.751ZM154.341 107.222C153.9 107.222 153.498 107.116 153.135 106.902C152.776 106.685 152.487 106.395 152.27 106.032C152.057 105.669 151.95 105.267 151.95 104.826C151.95 104.385 152.057 103.984 152.27 103.625C152.487 103.262 152.776 102.973 153.135 102.76C153.498 102.542 153.9 102.434 154.341 102.434C154.782 102.434 155.184 102.542 155.547 102.76C155.91 102.973 156.199 103.262 156.412 103.625C156.63 103.984 156.738 104.385 156.738 104.826C156.738 105.267 156.63 105.669 156.412 106.032C156.199 106.395 155.91 106.685 155.547 106.902C155.184 107.116 154.782 107.222 154.341 107.222ZM154.341 106.062C154.572 106.062 154.781 106.006 154.967 105.894C155.154 105.782 155.301 105.633 155.41 105.446C155.522 105.26 155.578 105.053 155.578 104.826C155.578 104.598 155.522 104.391 155.41 104.205C155.301 104.018 155.154 103.871 154.967 103.762C154.781 103.65 154.572 103.594 154.341 103.594C154.114 103.594 153.907 103.65 153.721 103.762C153.534 103.871 153.385 104.018 153.273 104.205C153.164 104.391 153.11 104.598 153.11 104.826C153.11 105.053 153.164 105.26 153.273 105.446C153.385 105.633 153.534 105.782 153.721 105.894C153.907 106.006 154.114 106.062 154.341 106.062Z" fill="black"/>
<path d="M231.578 130.38V129.24L235.104 125.586C235.481 125.189 235.791 124.841 236.035 124.543C236.283 124.241 236.468 123.954 236.59 123.683C236.712 123.411 236.773 123.123 236.773 122.818C236.773 122.472 236.692 122.173 236.529 121.922C236.366 121.668 236.144 121.473 235.862 121.337C235.581 121.198 235.263 121.128 234.911 121.128C234.537 121.128 234.212 121.205 233.934 121.357C233.655 121.51 233.442 121.725 233.292 122.004C233.143 122.282 233.069 122.607 233.069 122.981H231.567C231.567 122.346 231.713 121.792 232.005 121.317C232.297 120.842 232.697 120.474 233.206 120.212C233.715 119.948 234.293 119.815 234.941 119.815C235.596 119.815 236.173 119.946 236.671 120.207C237.173 120.465 237.565 120.818 237.847 121.266C238.128 121.71 238.269 122.212 238.269 122.772C238.269 123.159 238.196 123.537 238.05 123.907C237.908 124.277 237.659 124.689 237.302 125.143C236.946 125.594 236.451 126.142 235.816 126.787L233.745 128.955V129.031H238.437V130.38H231.578ZM240.366 130.38V129.24L243.892 125.586C244.269 125.189 244.579 124.841 244.823 124.543C245.071 124.241 245.256 123.954 245.378 123.683C245.5 123.411 245.561 123.123 245.561 122.818C245.561 122.472 245.48 122.173 245.317 121.922C245.154 121.668 244.932 121.473 244.65 121.337C244.369 121.198 244.052 121.128 243.699 121.128C243.326 121.128 243 121.205 242.722 121.357C242.444 121.51 242.23 121.725 242.081 122.004C241.931 122.282 241.857 122.607 241.857 122.981H240.356C240.356 122.346 240.501 121.792 240.793 121.317C241.085 120.842 241.485 120.474 241.994 120.212C242.503 119.948 243.081 119.815 243.729 119.815C244.384 119.815 244.961 119.946 245.46 120.207C245.962 120.465 246.353 120.818 246.635 121.266C246.917 121.71 247.057 122.212 247.057 122.772C247.057 123.159 246.984 123.537 246.839 123.907C246.696 124.277 246.447 124.689 246.091 125.143C245.734 125.594 245.239 126.142 244.605 126.787L242.534 128.955V129.031H247.225V130.38H240.366ZM251.418 124.67C250.977 124.67 250.575 124.563 250.212 124.349C249.853 124.132 249.564 123.842 249.347 123.479C249.134 123.116 249.027 122.714 249.027 122.273C249.027 121.832 249.134 121.432 249.347 121.072C249.564 120.709 249.853 120.421 250.212 120.207C250.575 119.99 250.977 119.882 251.418 119.882C251.859 119.882 252.262 119.99 252.624 120.207C252.987 120.421 253.276 120.709 253.49 121.072C253.707 121.432 253.815 121.832 253.815 122.273C253.815 122.714 253.707 123.116 253.49 123.479C253.276 123.842 252.987 124.132 252.624 124.349C252.262 124.563 251.859 124.67 251.418 124.67ZM251.418 123.51C251.649 123.51 251.858 123.454 252.044 123.342C252.231 123.23 252.379 123.081 252.487 122.894C252.599 122.707 252.655 122.501 252.655 122.273C252.655 122.046 252.599 121.839 252.487 121.652C252.379 121.466 252.231 121.318 252.044 121.21C251.858 121.098 251.649 121.042 251.418 121.042C251.191 121.042 250.984 121.098 250.798 121.21C250.611 121.318 250.462 121.466 250.35 121.652C250.241 121.839 250.187 122.046 250.187 122.273C250.187 122.501 250.241 122.707 250.35 122.894C250.462 123.081 250.611 123.23 250.798 123.342C250.984 123.454 251.191 123.51 251.418 123.51Z" fill="black"/>
<path d="M333.616 134.029V144.45H332.039V135.606H331.978L329.484 137.234V135.728L332.085 134.029H333.616ZM340.074 144.593C339.609 144.586 339.151 144.501 338.7 144.338C338.252 144.175 337.845 143.904 337.479 143.524C337.112 143.144 336.819 142.634 336.598 141.992C336.381 141.351 336.273 140.551 336.273 139.591C336.273 138.681 336.363 137.874 336.542 137.168C336.726 136.463 336.989 135.867 337.331 135.382C337.674 134.894 338.088 134.522 338.573 134.268C339.058 134.013 339.602 133.886 340.206 133.886C340.827 133.886 341.378 134.008 341.86 134.252C342.342 134.497 342.732 134.834 343.031 135.265C343.332 135.696 343.524 136.186 343.606 136.736H342.054C341.948 136.302 341.74 135.947 341.428 135.672C341.115 135.397 340.708 135.26 340.206 135.26C339.443 135.26 338.848 135.592 338.42 136.257C337.996 136.922 337.782 137.847 337.779 139.031H337.855C338.035 138.736 338.256 138.485 338.517 138.278C338.781 138.067 339.077 137.906 339.402 137.794C339.731 137.679 340.077 137.621 340.44 137.621C341.044 137.621 341.59 137.769 342.079 138.064C342.571 138.356 342.963 138.759 343.254 139.275C343.546 139.791 343.692 140.381 343.692 141.046C343.692 141.711 343.541 142.313 343.239 142.852C342.941 143.392 342.52 143.819 341.977 144.135C341.434 144.447 340.8 144.6 340.074 144.593ZM340.069 143.27C340.469 143.27 340.827 143.171 341.143 142.975C341.458 142.778 341.707 142.513 341.891 142.181C342.074 141.848 342.165 141.477 342.165 141.066C342.165 140.666 342.076 140.301 341.896 139.972C341.719 139.643 341.475 139.382 341.163 139.189C340.854 138.995 340.501 138.898 340.105 138.898C339.803 138.898 339.523 138.956 339.265 139.071C339.01 139.187 338.787 139.346 338.593 139.55C338.4 139.753 338.247 139.987 338.135 140.252C338.027 140.513 337.972 140.79 337.972 141.082C337.972 141.472 338.062 141.833 338.242 142.165C338.425 142.498 338.675 142.766 338.99 142.969C339.309 143.17 339.669 143.27 340.069 143.27ZM347.81 138.741C347.369 138.741 346.967 138.634 346.604 138.42C346.244 138.203 345.956 137.913 345.739 137.55C345.525 137.187 345.418 136.785 345.418 136.344C345.418 135.903 345.525 135.503 345.739 135.143C345.956 134.78 346.244 134.492 346.604 134.278C346.967 134.061 347.369 133.952 347.81 133.952C348.251 133.952 348.653 134.061 349.016 134.278C349.379 134.492 349.668 134.78 349.881 135.143C350.098 135.503 350.207 135.903 350.207 136.344C350.207 136.785 350.098 137.187 349.881 137.55C349.668 137.913 349.379 138.203 349.016 138.42C348.653 138.634 348.251 138.741 347.81 138.741ZM347.81 137.58C348.041 137.58 348.249 137.525 348.436 137.413C348.623 137.301 348.77 137.151 348.879 136.965C348.991 136.778 349.047 136.571 349.047 136.344C349.047 136.117 348.991 135.91 348.879 135.723C348.77 135.537 348.623 135.389 348.436 135.28C348.249 135.168 348.041 135.112 347.81 135.112C347.583 135.112 347.376 135.168 347.189 135.28C347.003 135.389 346.853 135.537 346.741 135.723C346.633 135.91 346.579 136.117 346.579 136.344C346.579 136.571 346.633 136.778 346.741 136.965C346.853 137.151 347.003 137.301 347.189 137.413C347.376 137.525 347.583 137.58 347.81 137.58Z" fill="black"/>
<circle cx="45.5955" cy="115.609" r="2.5589" fill="black"/>
<line x1="45.5955" y1="119.191" x2="45.5955" y2="149.898" stroke="#0FB3BB" stroke-width="1.02356" stroke-dasharray="2.05 2.05"/>
<g clip-path="url(#clip2_11_470)">
<path d="M234.847 196.491C235.041 196.368 235.249 196.267 235.469 196.189C235.467 196.132 235.465 196.074 235.465 196.016C235.465 193.983 236.946 192.297 238.887 191.976C238.148 191.628 237.456 191.148 236.846 190.536C235.247 188.946 234.549 186.789 234.746 184.713C234.804 184.11 233.946 183.464 233.401 183.849C233.074 184.081 232.769 184.343 232.479 184.633C229.637 187.465 229.637 192.068 232.479 194.899C233.178 195.604 233.985 196.134 234.847 196.491Z" fill="black"/>
<path d="M241.668 189.064L241.129 187.276L242.879 185.954L240.673 185.892L239.94 183.847L239.207 185.892L237.001 185.954L238.75 187.276L238.121 189.363L239.94 188.128L241.511 189.195C241.563 189.15 241.615 189.107 241.668 189.064Z" fill="black"/>
<path d="M248.481 185.21L247.347 186.063L247.755 187.413L246.579 186.615L245.404 187.413L245.812 186.063L244.677 185.21L246.102 185.176L246.579 183.847L247.056 185.176L248.481 185.21Z" fill="black"/>
<path d="M250.819 203.181H247.757L248.637 201.641C249.027 200.959 248.534 200.11 247.748 200.11H246.725V196.016C246.725 194.966 245.333 194.597 244.812 195.508L240.428 203.181H237.513C235.817 203.181 234.442 201.806 234.442 200.11C234.442 198.772 235.298 197.633 236.493 197.213C236.49 197.155 236.489 197.097 236.489 197.039C236.489 194.778 238.322 192.945 240.583 192.945C240.654 192.945 240.724 192.947 240.794 192.95C241.46 190.585 243.634 188.851 246.213 188.851C249.322 188.851 251.842 191.371 251.842 194.48C251.842 194.694 251.831 194.905 251.807 195.112C253.591 195.554 254.913 197.166 254.913 199.086C254.913 201.348 253.08 203.181 250.819 203.181Z" fill="black"/>
<path d="M241.607 203.181H243.654V208.298L247.748 201.133H245.701V196.016L241.607 203.181Z" fill="black"/>
</g>
<path d="M340.902 204.204H343.963C346.224 204.204 348.057 202.371 348.057 200.11C348.057 198.19 346.735 196.578 344.952 196.136C344.975 195.928 344.987 195.718 344.987 195.504C344.987 192.395 342.466 189.874 339.357 189.874C336.778 189.874 334.605 191.608 333.938 193.974C333.868 193.97 333.798 193.969 333.728 193.969C331.466 193.969 329.633 195.802 329.633 198.063C329.633 198.121 329.635 198.179 329.637 198.236C328.442 198.657 327.586 199.795 327.586 201.133C327.586 202.829 328.961 204.204 330.657 204.204H333.572L337.957 196.531C338.477 195.62 339.869 195.99 339.869 197.039V201.133H340.892C341.678 201.133 342.171 201.983 341.781 202.665L340.902 204.204Z" fill="black"/>
<path d="M334.751 204.204L338.845 197.039V202.157H340.892L336.798 209.322V204.204H334.751Z" fill="black"/>
<path d="M31.4569 170.045V176H30.7358V170.801H30.7009L29.247 171.766V171.033L30.7358 170.045H31.4569ZM35.2633 170.045V176H34.5421V170.801H34.5073L33.0533 171.766V171.033L34.5421 170.045H35.2633ZM37.1359 176.047C36.9925 176.047 36.8694 175.995 36.7666 175.892C36.6639 175.79 36.6125 175.667 36.6125 175.523C36.6125 175.38 36.6639 175.257 36.7666 175.154C36.8694 175.051 36.9925 175 37.1359 175C37.2794 175 37.4025 175.051 37.5052 175.154C37.608 175.257 37.6594 175.38 37.6594 175.523C37.6594 175.618 37.6351 175.705 37.5867 175.785C37.5401 175.864 37.4771 175.928 37.3976 175.977C37.3201 176.023 37.2329 176.047 37.1359 176.047ZM38.9453 176L41.6089 170.731V170.684H38.5382V170.045H42.3533V170.719L39.7014 176H38.9453ZM44.0886 174.372L44.077 173.523H44.2165L46.1706 171.534H47.0197L44.9377 173.639H44.8795L44.0886 174.372ZM43.4489 176V170.045H44.1351V176H43.4489ZM46.2869 176L44.5422 173.79L45.0307 173.313L47.1593 176H46.2869ZM47.903 176V171.534H48.5659V172.231H48.6241C48.7171 171.993 48.8674 171.808 49.0748 171.676C49.2822 171.542 49.5313 171.475 49.8221 171.475C50.1168 171.475 50.362 171.542 50.5578 171.676C50.7555 171.808 50.9097 171.993 51.0202 172.231H51.0667C51.1811 172.001 51.3526 171.818 51.5814 171.682C51.8101 171.544 52.0844 171.475 52.4043 171.475C52.8036 171.475 53.1303 171.6 53.3842 171.851C53.6382 172.099 53.7652 172.485 53.7652 173.011V176H53.0789V173.011C53.0789 172.681 52.9888 172.446 52.8085 172.304C52.6282 172.163 52.4159 172.092 52.1717 172.092C51.8576 172.092 51.6143 172.187 51.4418 172.377C51.2693 172.565 51.183 172.803 51.183 173.092V176H50.4851V172.941C50.4851 172.687 50.4027 172.482 50.2379 172.327C50.0732 172.17 49.8609 172.092 49.6011 172.092C49.4228 172.092 49.2561 172.139 49.101 172.234C48.9478 172.329 48.8238 172.461 48.7288 172.63C48.6357 172.797 48.5892 172.989 48.5892 173.208V176H47.903ZM57.1252 169.766L55.206 176.896H54.5779L56.4971 169.766H57.1252ZM58.6249 173.313V176H57.9386V170.045H58.6249V172.231H58.683C58.7877 172.001 58.9448 171.818 59.1541 171.682C59.3654 171.544 59.6465 171.475 59.9974 171.475C60.3017 171.475 60.5683 171.536 60.797 171.659C61.0258 171.779 61.2032 171.964 61.3292 172.214C61.4571 172.462 61.5211 172.778 61.5211 173.162V176H60.8349V173.208C60.8349 172.854 60.7428 172.579 60.5586 172.386C60.3764 172.19 60.1234 172.092 59.7997 172.092C59.5748 172.092 59.3732 172.139 59.1948 172.234C59.0184 172.329 58.8788 172.468 58.7761 172.65C58.6753 172.832 58.6249 173.053 58.6249 173.313Z" fill="black"/>
<path d="M42.1149 181.304V187.259H41.417L38.1719 182.583H38.1137V187.259H37.3926V181.304H38.0904L41.3472 185.991H41.4054V181.304H42.1149ZM45.2794 187.352C44.8761 187.352 44.5223 187.256 44.218 187.064C43.9156 186.872 43.6791 186.604 43.5085 186.259C43.3398 185.914 43.2555 185.511 43.2555 185.049C43.2555 184.584 43.3398 184.178 43.5085 183.831C43.6791 183.484 43.9156 183.214 44.218 183.022C44.5223 182.831 44.8761 182.735 45.2794 182.735C45.6826 182.735 46.0354 182.831 46.3378 183.022C46.6422 183.214 46.8787 183.484 47.0473 183.831C47.2179 184.178 47.3032 184.584 47.3032 185.049C47.3032 185.511 47.2179 185.914 47.0473 186.259C46.8787 186.604 46.6422 186.872 46.3378 187.064C46.0354 187.256 45.6826 187.352 45.2794 187.352ZM45.2794 186.736C45.5856 186.736 45.8377 186.657 46.0354 186.5C46.2331 186.343 46.3795 186.137 46.4745 185.881C46.5695 185.625 46.617 185.348 46.617 185.049C46.617 184.751 46.5695 184.472 46.4745 184.215C46.3795 183.957 46.2331 183.748 46.0354 183.589C45.8377 183.43 45.5856 183.351 45.2794 183.351C44.9731 183.351 44.721 183.43 44.5233 183.589C44.3256 183.748 44.1792 183.957 44.0842 184.215C43.9892 184.472 43.9417 184.751 43.9417 185.049C43.9417 185.348 43.9892 185.625 44.0842 185.881C44.1792 186.137 44.3256 186.343 44.5233 186.5C44.721 186.657 44.9731 186.736 45.2794 186.736ZM49.2108 187.259L47.8499 182.793H48.571L49.5364 186.212H49.583L50.5367 182.793H51.2695L52.2116 186.201H52.2582L53.2236 182.793H53.9447L52.5839 187.259H51.9092L50.9322 183.828H50.8624L49.8854 187.259H49.2108Z" fill="black"/>
<path d="M130.223 177.963C130.467 177.965 130.711 178.012 130.956 178.103C131.2 178.194 131.423 178.345 131.624 178.557C131.826 178.766 131.988 179.052 132.11 179.414C132.232 179.777 132.293 180.231 132.293 180.778C132.293 181.307 132.243 181.777 132.142 182.188C132.043 182.597 131.9 182.943 131.712 183.224C131.525 183.505 131.299 183.718 131.031 183.863C130.766 184.009 130.465 184.081 130.13 184.081C129.796 184.081 129.499 184.016 129.237 183.884C128.977 183.75 128.764 183.565 128.597 183.328C128.433 183.09 128.327 182.814 128.28 182.5H128.99C129.054 182.773 129.181 182.999 129.371 183.177C129.563 183.353 129.816 183.442 130.13 183.442C130.589 183.442 130.952 183.241 131.217 182.84C131.485 182.438 131.619 181.871 131.619 181.139H131.572C131.463 181.302 131.335 181.442 131.185 181.56C131.036 181.679 130.87 181.77 130.688 181.834C130.506 181.898 130.312 181.93 130.106 181.93C129.765 181.93 129.452 181.845 129.167 181.677C128.884 181.506 128.657 181.272 128.487 180.976C128.318 180.677 128.234 180.336 128.234 179.952C128.234 179.588 128.315 179.254 128.478 178.952C128.643 178.648 128.874 178.405 129.17 178.225C129.469 178.045 129.82 177.958 130.223 177.963ZM130.223 178.603C129.979 178.603 129.758 178.664 129.563 178.786C129.369 178.906 129.215 179.069 129.1 179.275C128.988 179.478 128.932 179.704 128.932 179.952C128.932 180.2 128.986 180.426 129.095 180.63C129.205 180.831 129.355 180.992 129.545 181.113C129.737 181.231 129.955 181.29 130.2 181.29C130.384 181.29 130.555 181.254 130.714 181.182C130.873 181.109 131.012 181.009 131.13 180.883C131.25 180.755 131.344 180.61 131.412 180.45C131.48 180.287 131.514 180.117 131.514 179.941C131.514 179.708 131.458 179.49 131.345 179.286C131.235 179.083 131.082 178.918 130.886 178.792C130.692 178.666 130.471 178.603 130.223 178.603ZM133.741 184.047C133.597 184.047 133.474 183.995 133.371 183.892C133.269 183.79 133.217 183.667 133.217 183.523C133.217 183.38 133.269 183.257 133.371 183.154C133.474 183.051 133.597 183 133.741 183C133.884 183 134.007 183.051 134.11 183.154C134.213 183.257 134.264 183.38 134.264 183.523C134.264 183.618 134.24 183.705 134.191 183.785C134.145 183.864 134.082 183.928 134.002 183.977C133.925 184.023 133.837 184.047 133.741 184.047ZM137.272 184.081C136.888 184.081 136.546 184.016 136.246 183.884C135.947 183.752 135.71 183.569 135.533 183.334C135.359 183.098 135.264 182.823 135.248 182.511H135.981C135.997 182.703 136.062 182.869 136.179 183.008C136.295 183.146 136.447 183.253 136.635 183.328C136.823 183.404 137.032 183.442 137.26 183.442C137.516 183.442 137.743 183.397 137.941 183.308C138.139 183.219 138.294 183.095 138.406 182.936C138.519 182.777 138.575 182.593 138.575 182.383C138.575 182.164 138.521 181.971 138.412 181.805C138.303 181.636 138.144 181.504 137.935 181.409C137.726 181.314 137.47 181.267 137.167 181.267H136.691V180.627H137.167C137.404 180.627 137.611 180.584 137.79 180.499C137.97 180.414 138.111 180.293 138.211 180.138C138.314 179.983 138.365 179.801 138.365 179.592C138.365 179.39 138.321 179.215 138.232 179.065C138.143 178.916 138.017 178.8 137.854 178.716C137.693 178.633 137.503 178.591 137.284 178.591C137.078 178.591 136.884 178.629 136.702 178.705C136.522 178.778 136.375 178.886 136.26 179.028C136.146 179.167 136.084 179.336 136.074 179.534H135.376C135.388 179.221 135.482 178.948 135.658 178.714C135.835 178.477 136.065 178.293 136.35 178.161C136.637 178.029 136.952 177.963 137.295 177.963C137.664 177.963 137.98 178.038 138.243 178.187C138.507 178.335 138.71 178.529 138.851 178.772C138.993 179.014 139.063 179.276 139.063 179.557C139.063 179.892 138.975 180.178 138.799 180.415C138.624 180.651 138.387 180.815 138.086 180.906V180.953C138.462 181.015 138.756 181.175 138.967 181.432C139.179 181.688 139.284 182.005 139.284 182.383C139.284 182.707 139.196 182.998 139.02 183.256C138.845 183.511 138.607 183.713 138.304 183.86C138.002 184.008 137.658 184.081 137.272 184.081ZM141.125 182.372L141.113 181.523H141.253L143.207 179.534H144.056L141.974 181.639H141.916L141.125 182.372ZM140.485 184V178.045H141.172V184H140.485ZM143.323 184L141.579 181.79L142.067 181.313L144.196 184H143.323ZM144.939 184V179.534H145.602V180.231H145.661C145.754 179.993 145.904 179.808 146.111 179.676C146.319 179.542 146.568 179.475 146.859 179.475C147.153 179.475 147.398 179.542 147.594 179.676C147.792 179.808 147.946 179.993 148.057 180.231H148.103C148.217 180.001 148.389 179.818 148.618 179.682C148.847 179.544 149.121 179.475 149.441 179.475C149.84 179.475 150.167 179.6 150.421 179.851C150.675 180.099 150.802 180.485 150.802 181.011V184H150.115V181.011C150.115 180.681 150.025 180.446 149.845 180.304C149.665 180.163 149.452 180.092 149.208 180.092C148.894 180.092 148.651 180.187 148.478 180.377C148.306 180.565 148.219 180.803 148.219 181.092V184H147.522V180.941C147.522 180.687 147.439 180.482 147.274 180.327C147.11 180.17 146.897 180.092 146.638 180.092C146.459 180.092 146.292 180.139 146.137 180.234C145.984 180.329 145.86 180.461 145.765 180.63C145.672 180.797 145.626 180.989 145.626 181.208V184H144.939ZM154.162 177.766L152.242 184.896H151.614L153.533 177.766H154.162ZM155.661 181.313V184H154.975V178.045H155.661V180.231H155.719C155.824 180.001 155.981 179.818 156.191 179.682C156.402 179.544 156.683 179.475 157.034 179.475C157.338 179.475 157.605 179.536 157.833 179.659C158.062 179.779 158.24 179.964 158.366 180.214C158.494 180.462 158.558 180.778 158.558 181.162V184H157.871V181.208C157.871 180.854 157.779 180.579 157.595 180.386C157.413 180.19 157.16 180.092 156.836 180.092C156.611 180.092 156.41 180.139 156.231 180.234C156.055 180.329 155.915 180.468 155.813 180.65C155.712 180.832 155.661 181.053 155.661 181.313Z" fill="black"/>
<path d="M132.861 195.259V194.736L134.826 192.584C135.057 192.332 135.247 192.113 135.396 191.927C135.546 191.739 135.656 191.562 135.728 191.398C135.802 191.231 135.838 191.056 135.838 190.874C135.838 190.665 135.788 190.484 135.687 190.33C135.588 190.177 135.453 190.059 135.28 189.976C135.108 189.892 134.914 189.851 134.699 189.851C134.47 189.851 134.27 189.898 134.1 189.993C133.931 190.086 133.8 190.217 133.707 190.386C133.616 190.554 133.57 190.752 133.57 190.979H132.884C132.884 190.63 132.965 190.324 133.125 190.06C133.286 189.796 133.505 189.591 133.783 189.443C134.062 189.296 134.375 189.222 134.722 189.222C135.071 189.222 135.38 189.296 135.649 189.443C135.919 189.591 136.13 189.79 136.283 190.04C136.436 190.29 136.513 190.568 136.513 190.874C136.513 191.093 136.473 191.307 136.394 191.517C136.316 191.724 136.181 191.956 135.987 192.212C135.795 192.466 135.528 192.776 135.187 193.142L133.849 194.573V194.619H136.618V195.259H132.861ZM137.819 195.259V194.736L139.784 192.584C140.015 192.332 140.205 192.113 140.354 191.927C140.504 191.739 140.614 191.562 140.686 191.398C140.759 191.231 140.796 191.056 140.796 190.874C140.796 190.665 140.746 190.484 140.645 190.33C140.546 190.177 140.411 190.059 140.238 189.976C140.065 189.892 139.872 189.851 139.656 189.851C139.428 189.851 139.228 189.898 139.057 189.993C138.889 190.086 138.758 190.217 138.665 190.386C138.574 190.554 138.528 190.752 138.528 190.979H137.842C137.842 190.63 137.922 190.324 138.083 190.06C138.244 189.796 138.463 189.591 138.74 189.443C139.02 189.296 139.333 189.222 139.68 189.222C140.029 189.222 140.338 189.296 140.607 189.443C140.877 189.591 141.088 189.79 141.241 190.04C141.394 190.29 141.471 190.568 141.471 190.874C141.471 191.093 141.431 191.307 141.352 191.517C141.274 191.724 141.138 191.956 140.945 192.212C140.753 192.466 140.486 192.776 140.145 193.142L138.807 194.573V194.619H141.576V195.259H137.819ZM143.288 194.497C143.145 194.497 143.022 194.446 142.919 194.343C142.816 194.24 142.765 194.117 142.765 193.974C142.765 193.83 142.816 193.707 142.919 193.605C143.022 193.502 143.145 193.45 143.288 193.45C143.432 193.45 143.555 193.502 143.658 193.605C143.76 193.707 143.812 193.83 143.812 193.974C143.812 194.069 143.787 194.156 143.739 194.236C143.693 194.315 143.63 194.379 143.55 194.428C143.472 194.474 143.385 194.497 143.288 194.497ZM143.288 191.485C143.145 191.485 143.022 191.433 142.919 191.331C142.816 191.228 142.765 191.105 142.765 190.961C142.765 190.818 142.816 190.695 142.919 190.592C143.022 190.489 143.145 190.438 143.288 190.438C143.432 190.438 143.555 190.489 143.658 190.592C143.76 190.695 143.812 190.818 143.812 190.961C143.812 191.056 143.787 191.144 143.739 191.223C143.693 191.303 143.63 191.367 143.55 191.415C143.472 191.462 143.385 191.485 143.288 191.485ZM146.974 195.341C146.536 195.341 146.163 195.221 145.854 194.983C145.546 194.743 145.311 194.395 145.148 193.939C144.985 193.481 144.904 192.929 144.904 192.282C144.904 191.638 144.985 191.088 145.148 190.633C145.313 190.175 145.549 189.826 145.857 189.586C146.168 189.344 146.54 189.222 146.974 189.222C147.408 189.222 147.779 189.344 148.088 189.586C148.398 189.826 148.634 190.175 148.797 190.633C148.962 191.088 149.044 191.638 149.044 192.282C149.044 192.929 148.963 193.481 148.8 193.939C148.637 194.395 148.402 194.743 148.094 194.983C147.785 195.221 147.412 195.341 146.974 195.341ZM146.974 194.701C147.408 194.701 147.746 194.491 147.986 194.073C148.226 193.654 148.347 193.057 148.347 192.282C148.347 191.766 148.291 191.327 148.181 190.964C148.072 190.602 147.915 190.326 147.71 190.136C147.506 189.946 147.261 189.851 146.974 189.851C146.544 189.851 146.207 190.063 145.965 190.487C145.723 190.91 145.602 191.508 145.602 192.282C145.602 192.797 145.656 193.235 145.764 193.596C145.873 193.956 146.029 194.231 146.233 194.419C146.438 194.607 146.685 194.701 146.974 194.701ZM152.092 195.341C151.654 195.341 151.281 195.221 150.972 194.983C150.664 194.743 150.429 194.395 150.266 193.939C150.103 193.481 150.021 192.929 150.021 192.282C150.021 191.638 150.103 191.088 150.266 190.633C150.43 190.175 150.667 189.826 150.975 189.586C151.285 189.344 151.658 189.222 152.092 189.222C152.526 189.222 152.897 189.344 153.206 189.586C153.516 189.826 153.752 190.175 153.915 190.633C154.08 191.088 154.162 191.638 154.162 192.282C154.162 192.929 154.081 193.481 153.918 193.939C153.755 194.395 153.52 194.743 153.211 194.983C152.903 195.221 152.53 195.341 152.092 195.341ZM152.092 194.701C152.526 194.701 152.863 194.491 153.104 194.073C153.344 193.654 153.464 193.057 153.464 192.282C153.464 191.766 153.409 191.327 153.299 190.964C153.19 190.602 153.033 190.326 152.827 190.136C152.624 189.946 152.379 189.851 152.092 189.851C151.661 189.851 151.325 190.063 151.083 190.487C150.84 190.91 150.719 191.508 150.719 192.282C150.719 192.797 150.774 193.235 150.882 193.596C150.991 193.956 151.147 194.231 151.35 194.419C151.556 194.607 151.803 194.701 152.092 194.701Z" fill="black"/>
<path d="M232.112 211.045V217H231.391V211.801H231.356L229.902 212.766V212.033L231.391 211.045H232.112ZM233.825 217V216.477L235.79 214.325C236.021 214.073 236.211 213.854 236.36 213.668C236.509 213.48 236.62 213.303 236.692 213.138C236.765 212.972 236.802 212.797 236.802 212.615C236.802 212.406 236.752 212.224 236.651 212.071C236.552 211.918 236.416 211.8 236.244 211.716C236.071 211.633 235.877 211.591 235.662 211.591C235.434 211.591 235.234 211.639 235.063 211.734C234.895 211.827 234.764 211.958 234.671 212.126C234.58 212.295 234.534 212.493 234.534 212.72H233.848C233.848 212.371 233.928 212.064 234.089 211.801C234.25 211.537 234.469 211.332 234.746 211.184C235.025 211.037 235.339 210.963 235.686 210.963C236.034 210.963 236.344 211.037 236.613 211.184C236.883 211.332 237.094 211.53 237.247 211.78C237.4 212.03 237.477 212.309 237.477 212.615C237.477 212.834 237.437 213.048 237.358 213.258C237.28 213.465 237.144 213.697 236.95 213.953C236.759 214.207 236.492 214.517 236.151 214.883L234.813 216.314V216.36H237.581V217H233.825ZM239.434 215.372L239.422 214.523H239.562L241.516 212.534H242.365L240.283 214.639H240.225L239.434 215.372ZM238.794 217V211.045H239.48V217H238.794ZM241.632 217L239.887 214.79L240.376 214.313L242.504 217H241.632ZM243.248 217V212.534H243.911V213.231H243.969C244.062 212.993 244.213 212.808 244.42 212.676C244.627 212.542 244.876 212.475 245.167 212.475C245.462 212.475 245.707 212.542 245.903 212.676C246.101 212.808 246.255 212.993 246.365 213.231H246.412C246.526 213.001 246.698 212.818 246.927 212.682C247.155 212.544 247.43 212.475 247.749 212.475C248.149 212.475 248.475 212.6 248.729 212.851C248.983 213.099 249.11 213.485 249.11 214.011V217H248.424V214.011C248.424 213.681 248.334 213.446 248.154 213.304C247.973 213.163 247.761 213.092 247.517 213.092C247.203 213.092 246.959 213.187 246.787 213.377C246.614 213.565 246.528 213.803 246.528 214.092V217H245.83V213.941C245.83 213.687 245.748 213.482 245.583 213.327C245.418 213.17 245.206 213.092 244.946 213.092C244.768 213.092 244.601 213.139 244.446 213.234C244.293 213.329 244.169 213.461 244.074 213.63C243.981 213.797 243.934 213.989 243.934 214.208V217H243.248ZM252.47 210.766L250.551 217.896H249.923L251.842 210.766H252.47ZM253.97 214.313V217H253.284V211.045H253.97V213.231H254.028C254.133 213.001 254.29 212.818 254.499 212.682C254.711 212.544 254.992 212.475 255.343 212.475C255.647 212.475 255.913 212.536 256.142 212.659C256.371 212.779 256.548 212.964 256.674 213.214C256.802 213.462 256.866 213.778 256.866 214.162V217H256.18V214.208C256.18 213.854 256.088 213.579 255.904 213.386C255.722 213.19 255.469 213.092 255.145 213.092C254.92 213.092 254.718 213.139 254.54 213.234C254.364 213.329 254.224 213.468 254.121 213.65C254.02 213.832 253.97 214.053 253.97 214.313Z" fill="black"/>
<path d="M234.644 228.341C234.205 228.341 233.832 228.221 233.524 227.983C233.216 227.743 232.98 227.395 232.817 226.939C232.655 226.482 232.573 225.929 232.573 225.282C232.573 224.638 232.655 224.088 232.817 223.633C232.982 223.175 233.219 222.826 233.527 222.586C233.837 222.344 234.209 222.223 234.644 222.223C235.078 222.223 235.449 222.344 235.757 222.586C236.067 222.826 236.304 223.175 236.467 223.633C236.632 224.088 236.714 224.638 236.714 225.282C236.714 225.929 236.633 226.482 236.47 226.939C236.307 227.395 236.071 227.743 235.763 227.983C235.455 228.221 235.082 228.341 234.644 228.341ZM234.644 227.701C235.078 227.701 235.415 227.492 235.655 227.073C235.896 226.654 236.016 226.057 236.016 225.282C236.016 224.766 235.961 224.327 235.85 223.964C235.742 223.602 235.585 223.326 235.379 223.136C235.176 222.946 234.93 222.851 234.644 222.851C234.213 222.851 233.877 223.063 233.635 223.487C233.392 223.91 233.271 224.508 233.271 225.282C233.271 225.797 233.325 226.235 233.434 226.596C233.542 226.956 233.699 227.231 233.902 227.419C234.108 227.607 234.355 227.701 234.644 227.701ZM239.761 228.341C239.323 228.341 238.95 228.221 238.642 227.983C238.334 227.743 238.098 227.395 237.935 226.939C237.772 226.482 237.691 225.929 237.691 225.282C237.691 224.638 237.772 224.088 237.935 223.633C238.1 223.175 238.337 222.826 238.645 222.586C238.955 222.344 239.327 222.223 239.761 222.223C240.196 222.223 240.567 222.344 240.875 222.586C241.185 222.826 241.422 223.175 241.585 223.633C241.749 224.088 241.832 224.638 241.832 225.282C241.832 225.929 241.75 226.482 241.587 226.939C241.425 227.395 241.189 227.743 240.881 227.983C240.573 228.221 240.199 228.341 239.761 228.341ZM239.761 227.701C240.196 227.701 240.533 227.492 240.773 227.073C241.014 226.654 241.134 226.057 241.134 225.282C241.134 224.766 241.079 224.327 240.968 223.964C240.86 223.602 240.703 223.326 240.497 223.136C240.293 222.946 240.048 222.851 239.761 222.851C239.331 222.851 238.995 223.063 238.752 223.487C238.51 223.91 238.389 224.508 238.389 225.282C238.389 225.797 238.443 226.235 238.552 226.596C238.66 226.956 238.816 227.231 239.02 227.419C239.225 227.607 239.473 227.701 239.761 227.701ZM243.448 227.497C243.305 227.497 243.182 227.446 243.079 227.343C242.976 227.24 242.925 227.117 242.925 226.974C242.925 226.83 242.976 226.707 243.079 226.605C243.182 226.502 243.305 226.451 243.448 226.451C243.592 226.451 243.715 226.502 243.818 226.605C243.921 226.707 243.972 226.83 243.972 226.974C243.972 227.069 243.948 227.156 243.899 227.236C243.853 227.315 243.79 227.379 243.71 227.428C243.633 227.474 243.545 227.497 243.448 227.497ZM243.448 224.485C243.305 224.485 243.182 224.433 243.079 224.331C242.976 224.228 242.925 224.105 242.925 223.961C242.925 223.818 242.976 223.695 243.079 223.592C243.182 223.489 243.305 223.438 243.448 223.438C243.592 223.438 243.715 223.489 243.818 223.592C243.921 223.695 243.972 223.818 243.972 223.961C243.972 224.056 243.948 224.144 243.899 224.223C243.853 224.303 243.79 224.367 243.71 224.415C243.633 224.462 243.545 224.485 243.448 224.485ZM247.134 228.341C246.696 228.341 246.323 228.221 246.015 227.983C245.706 227.743 245.471 227.395 245.308 226.939C245.145 226.482 245.064 225.929 245.064 225.282C245.064 224.638 245.145 224.088 245.308 223.633C245.473 223.175 245.709 222.826 246.018 222.586C246.328 222.344 246.7 222.223 247.134 222.223C247.568 222.223 247.94 222.344 248.248 222.586C248.558 222.826 248.795 223.175 248.957 223.633C249.122 224.088 249.205 224.638 249.205 225.282C249.205 225.929 249.123 226.482 248.96 226.939C248.797 227.395 248.562 227.743 248.254 227.983C247.945 228.221 247.572 228.341 247.134 228.341ZM247.134 227.701C247.568 227.701 247.906 227.492 248.146 227.073C248.386 226.654 248.507 226.057 248.507 225.282C248.507 224.766 248.451 224.327 248.341 223.964C248.232 223.602 248.075 223.326 247.87 223.136C247.666 222.946 247.421 222.851 247.134 222.851C246.704 222.851 246.367 223.063 246.125 223.487C245.883 223.91 245.762 224.508 245.762 225.282C245.762 225.797 245.816 226.235 245.925 226.596C246.033 226.956 246.189 227.231 246.393 227.419C246.598 227.607 246.845 227.701 247.134 227.701ZM252.252 228.341C251.814 228.341 251.441 228.221 251.132 227.983C250.824 227.743 250.589 227.395 250.426 226.939C250.263 226.482 250.182 225.929 250.182 225.282C250.182 224.638 250.263 224.088 250.426 223.633C250.591 223.175 250.827 222.826 251.135 222.586C251.446 222.344 251.818 222.223 252.252 222.223C252.686 222.223 253.057 222.344 253.366 222.586C253.676 222.826 253.912 223.175 254.075 223.633C254.24 224.088 254.322 224.638 254.322 225.282C254.322 225.929 254.241 226.482 254.078 226.939C253.915 227.395 253.68 227.743 253.372 227.983C253.063 228.221 252.69 228.341 252.252 228.341ZM252.252 227.701C252.686 227.701 253.024 227.492 253.264 227.073C253.504 226.654 253.624 226.057 253.624 225.282C253.624 224.766 253.569 224.327 253.459 223.964C253.35 223.602 253.193 223.326 252.988 223.136C252.784 222.946 252.539 222.851 252.252 222.851C251.822 222.851 251.485 223.063 251.243 223.487C251.001 223.91 250.879 224.508 250.879 225.282C250.879 225.797 250.934 226.235 251.042 226.596C251.151 226.956 251.307 227.231 251.51 227.419C251.716 227.607 251.963 227.701 252.252 227.701Z" fill="black"/>
<path d="M327.1 214.045V220H326.379V214.801H326.344L324.89 215.766V215.033L326.379 214.045H327.1ZM330.674 220.081C330.333 220.081 330.026 220.014 329.752 219.878C329.479 219.742 329.26 219.556 329.095 219.32C328.93 219.083 328.84 218.814 328.825 218.511H329.523C329.55 218.781 329.672 219.004 329.889 219.18C330.108 219.354 330.37 219.442 330.674 219.442C330.918 219.442 331.135 219.385 331.325 219.27C331.517 219.156 331.668 218.999 331.776 218.799C331.887 218.597 331.942 218.37 331.942 218.116C331.942 217.856 331.885 217.624 331.77 217.421C331.658 217.215 331.503 217.053 331.305 216.935C331.107 216.817 330.881 216.757 330.627 216.755C330.445 216.753 330.258 216.781 330.066 216.839C329.874 216.895 329.716 216.968 329.592 217.057L328.918 216.976L329.278 214.045H332.372V214.684H329.883L329.674 216.441H329.709C329.831 216.344 329.984 216.263 330.168 216.199C330.352 216.135 330.544 216.103 330.744 216.103C331.108 216.103 331.433 216.191 331.718 216.365C332.005 216.538 332.23 216.774 332.393 217.075C332.557 217.375 332.64 217.718 332.64 218.104C332.64 218.484 332.554 218.823 332.384 219.122C332.215 219.418 331.983 219.653 331.686 219.826C331.389 219.996 331.052 220.081 330.674 220.081ZM334.446 218.372L334.435 217.523H334.574L336.528 215.534H337.377L335.295 217.639H335.237L334.446 218.372ZM333.806 220V214.045H334.493V220H333.806ZM336.645 220L334.9 217.79L335.388 217.313L337.517 220H336.645ZM338.261 220V215.534H338.924V216.231H338.982C339.075 215.993 339.225 215.808 339.432 215.676C339.64 215.542 339.889 215.475 340.18 215.475C340.474 215.475 340.72 215.542 340.915 215.676C341.113 215.808 341.267 215.993 341.378 216.231H341.424C341.539 216.001 341.71 215.818 341.939 215.682C342.168 215.544 342.442 215.475 342.762 215.475C343.161 215.475 343.488 215.6 343.742 215.851C343.996 216.099 344.123 216.485 344.123 217.011V220H343.437V217.011C343.437 216.681 343.346 216.446 343.166 216.304C342.986 216.163 342.774 216.092 342.529 216.092C342.215 216.092 341.972 216.187 341.799 216.377C341.627 216.565 341.541 216.803 341.541 217.092V220H340.843V216.941C340.843 216.687 340.76 216.482 340.596 216.327C340.431 216.17 340.219 216.092 339.959 216.092C339.78 216.092 339.614 216.139 339.459 216.234C339.305 216.329 339.181 216.461 339.086 216.63C338.993 216.797 338.947 216.989 338.947 217.208V220H338.261ZM347.483 213.766L345.564 220.896H344.936L346.855 213.766H347.483ZM348.983 217.313V220H348.296V214.045H348.983V216.231H349.041C349.145 216.001 349.302 215.818 349.512 215.682C349.723 215.544 350.004 215.475 350.355 215.475C350.659 215.475 350.926 215.536 351.155 215.659C351.383 215.779 351.561 215.964 351.687 216.214C351.815 216.462 351.879 216.778 351.879 217.162V220H351.192V217.208C351.192 216.854 351.1 216.579 350.916 216.386C350.734 216.19 350.481 216.092 350.157 216.092C349.932 216.092 349.731 216.139 349.552 216.234C349.376 216.329 349.236 216.468 349.134 216.65C349.033 216.832 348.983 217.053 348.983 217.313Z" fill="black"/>
<path d="M330.34 231.259V230.736L332.306 228.584C332.536 228.332 332.726 228.113 332.875 227.927C333.025 227.739 333.135 227.562 333.207 227.398C333.281 227.231 333.317 227.056 333.317 226.874C333.317 226.665 333.267 226.484 333.166 226.33C333.067 226.177 332.932 226.059 332.759 225.976C332.587 225.892 332.393 225.851 332.178 225.851C331.949 225.851 331.749 225.898 331.579 225.993C331.41 226.086 331.279 226.217 331.186 226.386C331.095 226.554 331.049 226.752 331.049 226.979H330.363C330.363 226.63 330.444 226.324 330.604 226.06C330.765 225.796 330.984 225.591 331.262 225.443C331.541 225.296 331.854 225.222 332.201 225.222C332.55 225.222 332.859 225.296 333.128 225.443C333.398 225.591 333.609 225.79 333.762 226.04C333.916 226.29 333.992 226.568 333.992 226.874C333.992 227.093 333.952 227.307 333.873 227.517C333.795 227.724 333.66 227.956 333.466 228.212C333.274 228.466 333.007 228.776 332.666 229.142L331.329 230.573V230.619H334.097V231.259H330.34ZM335.81 230.497C335.666 230.497 335.543 230.446 335.44 230.343C335.337 230.24 335.286 230.117 335.286 229.974C335.286 229.83 335.337 229.707 335.44 229.605C335.543 229.502 335.666 229.45 335.81 229.45C335.953 229.45 336.076 229.502 336.179 229.605C336.282 229.707 336.333 229.83 336.333 229.974C336.333 230.069 336.309 230.156 336.26 230.236C336.214 230.315 336.151 230.379 336.071 230.428C335.994 230.474 335.906 230.497 335.81 230.497ZM335.81 227.485C335.666 227.485 335.543 227.433 335.44 227.331C335.337 227.228 335.286 227.105 335.286 226.961C335.286 226.818 335.337 226.695 335.44 226.592C335.543 226.489 335.666 226.438 335.81 226.438C335.953 226.438 336.076 226.489 336.179 226.592C336.282 226.695 336.333 226.818 336.333 226.961C336.333 227.056 336.309 227.144 336.26 227.223C336.214 227.303 336.151 227.367 336.071 227.415C335.994 227.462 335.906 227.485 335.81 227.485ZM339.495 231.341C339.057 231.341 338.684 231.221 338.376 230.983C338.067 230.743 337.832 230.395 337.669 229.939C337.506 229.481 337.425 228.929 337.425 228.282C337.425 227.638 337.506 227.088 337.669 226.633C337.834 226.175 338.07 225.826 338.379 225.586C338.689 225.344 339.061 225.222 339.495 225.222C339.929 225.222 340.301 225.344 340.609 225.586C340.919 225.826 341.156 226.175 341.318 226.633C341.483 227.088 341.566 227.638 341.566 228.282C341.566 228.929 341.484 229.481 341.321 229.939C341.158 230.395 340.923 230.743 340.615 230.983C340.306 231.221 339.933 231.341 339.495 231.341ZM339.495 230.701C339.929 230.701 340.267 230.491 340.507 230.073C340.748 229.654 340.868 229.057 340.868 228.282C340.868 227.766 340.812 227.327 340.702 226.964C340.593 226.602 340.436 226.326 340.231 226.136C340.027 225.946 339.782 225.851 339.495 225.851C339.065 225.851 338.728 226.063 338.486 226.487C338.244 226.91 338.123 227.508 338.123 228.282C338.123 228.797 338.177 229.235 338.286 229.596C338.394 229.956 338.55 230.231 338.754 230.419C338.959 230.607 339.206 230.701 339.495 230.701ZM344.613 231.341C344.175 231.341 343.802 231.221 343.493 230.983C343.185 230.743 342.95 230.395 342.787 229.939C342.624 229.481 342.543 228.929 342.543 228.282C342.543 227.638 342.624 227.088 342.787 226.633C342.952 226.175 343.188 225.826 343.496 225.586C343.807 225.344 344.179 225.222 344.613 225.222C345.047 225.222 345.418 225.344 345.727 225.586C346.037 225.826 346.273 226.175 346.436 226.633C346.601 227.088 346.683 227.638 346.683 228.282C346.683 228.929 346.602 229.481 346.439 229.939C346.276 230.395 346.041 230.743 345.733 230.983C345.424 231.221 345.051 231.341 344.613 231.341ZM344.613 230.701C345.047 230.701 345.385 230.491 345.625 230.073C345.865 229.654 345.985 229.057 345.985 228.282C345.985 227.766 345.93 227.327 345.82 226.964C345.711 226.602 345.554 226.326 345.349 226.136C345.145 225.946 344.9 225.851 344.613 225.851C344.183 225.851 343.846 226.063 343.604 226.487C343.362 226.91 343.24 227.508 343.24 228.282C343.24 228.797 343.295 229.235 343.403 229.596C343.512 229.956 343.668 230.231 343.871 230.419C344.077 230.607 344.324 230.701 344.613 230.701Z" fill="black"/>
<path d="M462.658 136V134.86L466.185 131.206C466.561 130.81 466.872 130.462 467.116 130.163C467.364 129.861 467.548 129.575 467.671 129.303C467.793 129.032 467.854 128.743 467.854 128.438C467.854 128.092 467.772 127.794 467.609 127.543C467.447 127.288 467.224 127.093 466.943 126.957C466.661 126.818 466.344 126.749 465.991 126.749C465.618 126.749 465.292 126.825 465.014 126.978C464.736 127.13 464.522 127.346 464.373 127.624C464.224 127.902 464.149 128.228 464.149 128.601H462.648C462.648 127.967 462.794 127.412 463.086 126.937C463.377 126.462 463.778 126.094 464.287 125.833C464.795 125.568 465.374 125.436 466.022 125.436C466.677 125.436 467.253 125.566 467.752 125.828C468.254 126.085 468.646 126.438 468.927 126.886C469.209 127.331 469.35 127.833 469.35 128.392C469.35 128.779 469.277 129.157 469.131 129.527C468.989 129.897 468.739 130.309 468.383 130.764C468.027 131.215 467.531 131.763 466.897 132.407L464.826 134.575V134.651H469.518V136H462.658ZM475.075 136.173C474.271 136.17 473.584 135.958 473.014 135.537C472.444 135.116 472.008 134.504 471.706 133.7C471.404 132.896 471.253 131.927 471.253 130.794C471.253 129.665 471.404 128.699 471.706 127.899C472.011 127.098 472.449 126.487 473.019 126.067C473.592 125.646 474.277 125.436 475.075 125.436C475.872 125.436 476.555 125.648 477.125 126.072C477.695 126.493 478.131 127.103 478.433 127.904C478.739 128.701 478.891 129.665 478.891 130.794C478.891 131.931 478.74 132.901 478.438 133.705C478.136 134.506 477.7 135.118 477.13 135.542C476.561 135.963 475.875 136.173 475.075 136.173ZM475.075 134.814C475.78 134.814 476.332 134.47 476.728 133.781C477.129 133.093 477.329 132.097 477.329 130.794C477.329 129.929 477.237 129.198 477.054 128.601C476.874 128.001 476.615 127.546 476.276 127.237C475.94 126.925 475.539 126.769 475.075 126.769C474.372 126.769 473.821 127.115 473.421 127.807C473.021 128.499 472.819 129.495 472.815 130.794C472.815 131.663 472.905 132.397 473.085 132.998C473.268 133.595 473.528 134.048 473.864 134.356C474.199 134.662 474.603 134.814 475.075 134.814ZM482.961 130.29C482.52 130.29 482.118 130.184 481.755 129.97C481.395 129.753 481.107 129.463 480.89 129.1C480.676 128.737 480.569 128.335 480.569 127.894C480.569 127.453 480.676 127.052 480.89 126.693C481.107 126.33 481.395 126.041 481.755 125.828C482.118 125.611 482.52 125.502 482.961 125.502C483.402 125.502 483.804 125.611 484.167 125.828C484.53 126.041 484.818 126.33 485.032 126.693C485.249 127.052 485.358 127.453 485.358 127.894C485.358 128.335 485.249 128.737 485.032 129.1C484.818 129.463 484.53 129.753 484.167 129.97C483.804 130.184 483.402 130.29 482.961 130.29ZM482.961 129.13C483.192 129.13 483.4 129.074 483.587 128.962C483.773 128.85 483.921 128.701 484.03 128.514C484.141 128.328 484.197 128.121 484.197 127.894C484.197 127.666 484.141 127.459 484.03 127.273C483.921 127.086 483.773 126.939 483.587 126.83C483.4 126.718 483.192 126.662 482.961 126.662C482.734 126.662 482.527 126.718 482.34 126.83C482.153 126.939 482.004 127.086 481.892 127.273C481.784 127.459 481.729 127.666 481.729 127.894C481.729 128.121 481.784 128.328 481.892 128.514C482.004 128.701 482.153 128.85 482.34 128.962C482.527 129.074 482.734 129.13 482.961 129.13Z" fill="black"/>
<path d="M472.528 195.754H475.589C477.85 195.754 479.683 193.921 479.683 191.66C479.683 189.739 478.361 188.128 476.578 187.686C476.601 187.478 476.613 187.267 476.613 187.054C476.613 183.945 474.092 181.424 470.983 181.424C468.404 181.424 466.23 183.158 465.564 185.524C465.494 185.52 465.424 185.518 465.354 185.518C463.092 185.518 461.259 187.351 461.259 189.613C461.259 189.671 461.26 189.728 461.263 189.786C460.068 190.207 459.212 191.345 459.212 192.683C459.212 194.379 460.587 195.754 462.283 195.754H465.198L469.583 188.081C470.103 187.17 471.495 187.539 471.495 188.589V192.683H472.518C473.304 192.683 473.797 193.532 473.407 194.215L472.528 195.754Z" fill="black"/>
<path d="M466.377 195.754L470.471 188.589V193.707H472.518L468.424 200.872V195.754H466.377Z" fill="black"/>
<path d="M458.1 205.045V211H457.379V205.801H457.344L455.89 206.766V206.033L457.379 205.045H458.1ZM461.674 211.081C461.333 211.081 461.026 211.014 460.752 210.878C460.479 210.742 460.26 210.556 460.095 210.32C459.93 210.083 459.84 209.814 459.825 209.511H460.523C460.55 209.781 460.672 210.004 460.889 210.18C461.108 210.354 461.37 210.442 461.674 210.442C461.918 210.442 462.135 210.385 462.325 210.27C462.517 210.156 462.668 209.999 462.776 209.799C462.887 209.597 462.942 209.37 462.942 209.116C462.942 208.856 462.885 208.624 462.77 208.421C462.658 208.215 462.503 208.053 462.305 207.935C462.107 207.817 461.881 207.757 461.627 207.755C461.445 207.753 461.258 207.781 461.066 207.839C460.874 207.895 460.716 207.968 460.592 208.057L459.918 207.976L460.278 205.045H463.372V205.684H460.883L460.674 207.441H460.709C460.831 207.344 460.984 207.263 461.168 207.199C461.352 207.135 461.544 207.103 461.744 207.103C462.108 207.103 462.433 207.191 462.718 207.365C463.005 207.538 463.23 207.774 463.393 208.075C463.557 208.375 463.64 208.718 463.64 209.104C463.64 209.484 463.554 209.823 463.384 210.122C463.215 210.418 462.983 210.653 462.686 210.826C462.389 210.996 462.052 211.081 461.674 211.081ZM465.446 209.372L465.435 208.523H465.574L467.528 206.534H468.377L466.295 208.639H466.237L465.446 209.372ZM464.806 211V205.045H465.493V211H464.806ZM467.645 211L465.9 208.79L466.388 208.313L468.517 211H467.645ZM469.261 211V206.534H469.924V207.231H469.982C470.075 206.993 470.225 206.808 470.432 206.676C470.64 206.542 470.889 206.475 471.18 206.475C471.474 206.475 471.72 206.542 471.915 206.676C472.113 206.808 472.267 206.993 472.378 207.231H472.424C472.539 207.001 472.71 206.818 472.939 206.682C473.168 206.544 473.442 206.475 473.762 206.475C474.161 206.475 474.488 206.6 474.742 206.851C474.996 207.099 475.123 207.485 475.123 208.011V211H474.437V208.011C474.437 207.681 474.346 207.446 474.166 207.304C473.986 207.163 473.774 207.092 473.529 207.092C473.215 207.092 472.972 207.187 472.799 207.377C472.627 207.565 472.541 207.803 472.541 208.092V211H471.843V207.941C471.843 207.687 471.76 207.482 471.596 207.327C471.431 207.17 471.219 207.092 470.959 207.092C470.78 207.092 470.614 207.139 470.459 207.234C470.305 207.329 470.181 207.461 470.086 207.63C469.993 207.797 469.947 207.989 469.947 208.208V211H469.261ZM478.483 204.766L476.564 211.896H475.936L477.855 204.766H478.483ZM479.983 208.313V211H479.296V205.045H479.983V207.231H480.041C480.145 207.001 480.302 206.818 480.512 206.682C480.723 206.544 481.004 206.475 481.355 206.475C481.659 206.475 481.926 206.536 482.155 206.659C482.383 206.779 482.561 206.964 482.687 207.214C482.815 207.462 482.879 207.778 482.879 208.162V211H482.192V208.208C482.192 207.854 482.1 207.579 481.916 207.386C481.734 207.19 481.481 207.092 481.157 207.092C480.932 207.092 480.731 207.139 480.552 207.234C480.376 207.329 480.236 207.468 480.134 207.65C480.033 207.832 479.983 208.053 479.983 208.313Z" fill="black"/>
<path d="M461.052 221.038V220.445L463.669 216.304H464.1V217.223H463.809L461.832 220.352V220.398H465.356V221.038H461.052ZM463.856 222.259V220.858V220.581V216.304H464.542V222.259H463.856ZM466.957 221.497C466.814 221.497 466.691 221.446 466.588 221.343C466.485 221.24 466.434 221.117 466.434 220.974C466.434 220.83 466.485 220.707 466.588 220.605C466.691 220.502 466.814 220.45 466.957 220.45C467.101 220.45 467.224 220.502 467.327 220.605C467.429 220.707 467.481 220.83 467.481 220.974C467.481 221.069 467.457 221.156 467.408 221.236C467.362 221.315 467.299 221.379 467.219 221.428C467.142 221.474 467.054 221.497 466.957 221.497ZM466.957 218.485C466.814 218.485 466.691 218.433 466.588 218.331C466.485 218.228 466.434 218.105 466.434 217.961C466.434 217.818 466.485 217.695 466.588 217.592C466.691 217.489 466.814 217.438 466.957 217.438C467.101 217.438 467.224 217.489 467.327 217.592C467.429 217.695 467.481 217.818 467.481 217.961C467.481 218.056 467.457 218.144 467.408 218.223C467.362 218.303 467.299 218.367 467.219 218.415C467.142 218.462 467.054 218.485 466.957 218.485ZM470.643 222.341C470.205 222.341 469.832 222.221 469.524 221.983C469.215 221.743 468.98 221.395 468.817 220.939C468.654 220.481 468.573 219.929 468.573 219.282C468.573 218.638 468.654 218.088 468.817 217.633C468.982 217.175 469.218 216.826 469.527 216.586C469.837 216.344 470.209 216.222 470.643 216.222C471.077 216.222 471.449 216.344 471.757 216.586C472.067 216.826 472.304 217.175 472.466 217.633C472.631 218.088 472.714 218.638 472.714 219.282C472.714 219.929 472.632 220.481 472.469 220.939C472.306 221.395 472.071 221.743 471.763 221.983C471.454 222.221 471.081 222.341 470.643 222.341ZM470.643 221.701C471.077 221.701 471.415 221.491 471.655 221.073C471.895 220.654 472.016 220.057 472.016 219.282C472.016 218.766 471.96 218.327 471.85 217.964C471.741 217.602 471.584 217.326 471.379 217.136C471.175 216.946 470.93 216.851 470.643 216.851C470.213 216.851 469.876 217.063 469.634 217.487C469.392 217.91 469.271 218.508 469.271 219.282C469.271 219.797 469.325 220.235 469.433 220.596C469.542 220.956 469.698 221.231 469.902 221.419C470.107 221.607 470.354 221.701 470.643 221.701ZM475.761 222.341C475.323 222.341 474.95 222.221 474.641 221.983C474.333 221.743 474.098 221.395 473.935 220.939C473.772 220.481 473.691 219.929 473.691 219.282C473.691 218.638 473.772 218.088 473.935 217.633C474.1 217.175 474.336 216.826 474.644 216.586C474.954 216.344 475.327 216.222 475.761 216.222C476.195 216.222 476.566 216.344 476.875 216.586C477.185 216.826 477.421 217.175 477.584 217.633C477.749 218.088 477.831 218.638 477.831 219.282C477.831 219.929 477.75 220.481 477.587 220.939C477.424 221.395 477.189 221.743 476.88 221.983C476.572 222.221 476.199 222.341 475.761 222.341ZM475.761 221.701C476.195 221.701 476.532 221.491 476.773 221.073C477.013 220.654 477.133 220.057 477.133 219.282C477.133 218.766 477.078 218.327 476.968 217.964C476.859 217.602 476.702 217.326 476.497 217.136C476.293 216.946 476.048 216.851 475.761 216.851C475.331 216.851 474.994 217.063 474.752 217.487C474.51 217.91 474.388 218.508 474.388 219.282C474.388 219.797 474.443 220.235 474.551 220.596C474.66 220.956 474.816 221.231 475.019 221.419C475.225 221.607 475.472 221.701 475.761 221.701Z" fill="black"/>
<path d="M596.889 149V147.86L600.416 144.206C600.792 143.81 601.103 143.462 601.347 143.163C601.594 142.861 601.779 142.575 601.901 142.303C602.024 142.032 602.085 141.743 602.085 141.438C602.085 141.092 602.003 140.794 601.84 140.543C601.678 140.288 601.455 140.093 601.174 139.957C600.892 139.818 600.575 139.749 600.222 139.749C599.849 139.749 599.523 139.825 599.245 139.978C598.967 140.13 598.753 140.346 598.604 140.624C598.455 140.902 598.38 141.228 598.38 141.601H596.879C596.879 140.967 597.025 140.412 597.317 139.937C597.608 139.462 598.009 139.094 598.517 138.833C599.026 138.568 599.605 138.436 600.253 138.436C600.907 138.436 601.484 138.566 601.983 138.828C602.485 139.085 602.877 139.438 603.158 139.886C603.44 140.331 603.581 140.833 603.581 141.392C603.581 141.779 603.508 142.157 603.362 142.527C603.219 142.897 602.97 143.309 602.614 143.764C602.258 144.215 601.762 144.763 601.128 145.407L599.057 147.575V147.651H603.749V149H596.889ZM605.677 149V147.86L609.204 144.206C609.58 143.81 609.891 143.462 610.135 143.163C610.383 142.861 610.568 142.575 610.69 142.303C610.812 142.032 610.873 141.743 610.873 141.438C610.873 141.092 610.791 140.794 610.629 140.543C610.466 140.288 610.244 140.093 609.962 139.957C609.68 139.818 609.363 139.749 609.01 139.749C608.637 139.749 608.312 139.825 608.033 139.978C607.755 140.13 607.541 140.346 607.392 140.624C607.243 140.902 607.168 141.228 607.168 141.601H605.667C605.667 140.967 605.813 140.412 606.105 139.937C606.396 139.462 606.797 139.094 607.306 138.833C607.815 138.568 608.393 138.436 609.041 138.436C609.696 138.436 610.272 138.566 610.771 138.828C611.273 139.085 611.665 139.438 611.947 139.886C612.228 140.331 612.369 140.833 612.369 141.392C612.369 141.779 612.296 142.157 612.15 142.527C612.008 142.897 611.758 143.309 611.402 143.764C611.046 144.215 610.551 144.763 609.916 145.407L607.845 147.575V147.651H612.537V149H605.677ZM616.73 143.29C616.289 143.29 615.887 143.184 615.524 142.97C615.164 142.753 614.876 142.463 614.659 142.1C614.445 141.737 614.338 141.335 614.338 140.894C614.338 140.453 614.445 140.052 614.659 139.693C614.876 139.33 615.164 139.041 615.524 138.828C615.887 138.611 616.289 138.502 616.73 138.502C617.171 138.502 617.573 138.611 617.936 138.828C618.299 139.041 618.587 139.33 618.801 139.693C619.018 140.052 619.127 140.453 619.127 140.894C619.127 141.335 619.018 141.737 618.801 142.1C618.587 142.463 618.299 142.753 617.936 142.97C617.573 143.184 617.171 143.29 616.73 143.29ZM616.73 142.13C616.961 142.13 617.169 142.074 617.356 141.962C617.542 141.85 617.69 141.701 617.799 141.514C617.911 141.328 617.967 141.121 617.967 140.894C617.967 140.666 617.911 140.459 617.799 140.273C617.69 140.086 617.542 139.939 617.356 139.83C617.169 139.718 616.961 139.662 616.73 139.662C616.503 139.662 616.296 139.718 616.109 139.83C615.923 139.939 615.773 140.086 615.661 140.273C615.553 140.459 615.499 140.666 615.499 140.894C615.499 141.121 615.553 141.328 615.661 141.514C615.773 141.701 615.923 141.85 616.109 141.962C616.296 142.074 616.503 142.13 616.73 142.13Z" fill="black"/>
<g clip-path="url(#clip3_11_470)">
<path d="M598.004 203.523C597.789 203.598 597.585 203.698 597.396 203.818C596.554 203.469 595.765 202.951 595.082 202.263C592.306 199.496 592.306 194.999 595.082 192.233C595.366 191.949 595.664 191.694 595.983 191.467C596.516 191.091 597.354 191.722 597.297 192.311C597.105 194.339 597.787 196.446 599.348 198C599.944 198.598 600.621 199.067 601.343 199.407C599.447 199.72 598 201.368 598 203.353C598 203.41 598.001 203.467 598.004 203.523Z" fill="black"/>
<path d="M603.533 194.815L604.06 196.562C604.008 196.603 603.957 196.646 603.907 196.69L602.371 195.648L600.594 196.853L601.209 194.815L599.5 193.523L601.655 193.463L602.371 191.465L603.087 193.463L605.242 193.523L603.533 194.815Z" fill="black"/>
<path d="M609.608 193.629L610.716 192.797L609.324 192.763L608.858 191.465L608.392 192.763L607 192.797L608.108 193.629L607.709 194.948L608.858 194.169L610.006 194.948L609.608 193.629Z" fill="black"/>
<path d="M612.009 210.353H613C615.209 210.353 617 208.563 617 206.353C617 204.477 615.708 202.903 613.966 202.471C613.988 202.268 614 202.062 614 201.853C614 198.816 611.538 196.353 608.5 196.353C605.981 196.353 603.857 198.047 603.206 200.359C603.137 200.355 603.069 200.353 603 200.353C600.791 200.353 599 202.144 599 204.353C599 204.41 599.001 204.467 599.004 204.523C597.836 204.934 597 206.046 597 207.353C597 209.01 598.343 210.353 600 210.353H604.848L609.132 202.857C609.641 201.967 611 202.328 611 203.353V207.353H612C612.768 207.353 613.249 208.183 612.868 208.85L612.009 210.353Z" fill="black"/>
<path d="M606 210.353L610 203.353V208.353H612L608 215.353V210.353H606Z" fill="black"/>
<path d="M604.552 215.353H603.448L603.559 214.131L602.552 214.84L602 213.867L603.103 213.353L602 212.84L602.552 211.867L603.559 212.576L603.448 211.353H604.552L604.441 212.576L605.448 211.867L606 212.84L604.897 213.353L606 213.867L605.448 214.84L604.441 214.131L604.552 215.353Z" fill="black"/>
</g>
<path d="M594.1 219.045V225H593.379V219.801H593.344L591.89 220.766V220.033L593.379 219.045H594.1ZM597.674 225.081C597.333 225.081 597.026 225.014 596.752 224.878C596.479 224.742 596.26 224.556 596.095 224.32C595.93 224.083 595.84 223.814 595.825 223.511H596.523C596.55 223.781 596.672 224.004 596.889 224.18C597.108 224.354 597.37 224.442 597.674 224.442C597.918 224.442 598.135 224.385 598.325 224.27C598.517 224.156 598.668 223.999 598.776 223.799C598.887 223.597 598.942 223.37 598.942 223.116C598.942 222.856 598.885 222.624 598.77 222.421C598.658 222.215 598.503 222.053 598.305 221.935C598.107 221.817 597.881 221.757 597.627 221.755C597.445 221.753 597.258 221.781 597.066 221.839C596.874 221.895 596.716 221.968 596.592 222.057L595.918 221.976L596.278 219.045H599.372V219.684H596.883L596.674 221.441H596.709C596.831 221.344 596.984 221.263 597.168 221.199C597.352 221.135 597.544 221.103 597.744 221.103C598.108 221.103 598.433 221.191 598.718 221.365C599.005 221.538 599.23 221.774 599.393 222.075C599.557 222.375 599.64 222.718 599.64 223.104C599.64 223.484 599.554 223.823 599.384 224.122C599.215 224.418 598.983 224.653 598.686 224.826C598.389 224.996 598.052 225.081 597.674 225.081ZM601.446 223.372L601.435 222.523H601.574L603.528 220.534H604.377L602.295 222.639H602.237L601.446 223.372ZM600.806 225V219.045H601.493V225H600.806ZM603.645 225L601.9 222.79L602.388 222.313L604.517 225H603.645ZM605.261 225V220.534H605.924V221.231H605.982C606.075 220.993 606.225 220.808 606.432 220.676C606.64 220.542 606.889 220.475 607.18 220.475C607.474 220.475 607.72 220.542 607.915 220.676C608.113 220.808 608.267 220.993 608.378 221.231H608.424C608.539 221.001 608.71 220.818 608.939 220.682C609.168 220.544 609.442 220.475 609.762 220.475C610.161 220.475 610.488 220.6 610.742 220.851C610.996 221.099 611.123 221.485 611.123 222.011V225H610.437V222.011C610.437 221.681 610.346 221.446 610.166 221.304C609.986 221.163 609.774 221.092 609.529 221.092C609.215 221.092 608.972 221.187 608.799 221.377C608.627 221.565 608.541 221.803 608.541 222.092V225H607.843V221.941C607.843 221.687 607.76 221.482 607.596 221.327C607.431 221.17 607.219 221.092 606.959 221.092C606.78 221.092 606.614 221.139 606.459 221.234C606.305 221.329 606.181 221.461 606.086 221.63C605.993 221.797 605.947 221.989 605.947 222.208V225H605.261ZM614.483 218.766L612.564 225.896H611.936L613.855 218.766H614.483ZM615.983 222.313V225H615.296V219.045H615.983V221.231H616.041C616.145 221.001 616.302 220.818 616.512 220.682C616.723 220.544 617.004 220.475 617.355 220.475C617.659 220.475 617.926 220.536 618.155 220.659C618.383 220.779 618.561 220.964 618.687 221.214C618.815 221.462 618.879 221.778 618.879 222.162V225H618.192V222.208C618.192 221.854 618.1 221.579 617.916 221.386C617.734 221.19 617.481 221.092 617.157 221.092C616.932 221.092 616.731 221.139 616.552 221.234C616.376 221.329 616.236 221.468 616.134 221.65C616.033 221.832 615.983 222.053 615.983 222.313Z" fill="black"/>
<path d="M599.241 236.341C598.997 236.337 598.753 236.29 598.508 236.201C598.264 236.112 598.041 235.962 597.84 235.75C597.638 235.537 597.476 235.249 597.354 234.887C597.232 234.522 597.171 234.065 597.171 233.514C597.171 232.987 597.22 232.52 597.319 232.113C597.418 231.704 597.561 231.359 597.749 231.08C597.938 230.799 598.164 230.586 598.43 230.441C598.697 230.295 598.999 230.222 599.334 230.222C599.668 230.222 599.964 230.289 600.224 230.423C600.486 230.555 600.699 230.739 600.864 230.976C601.029 231.212 601.135 231.484 601.184 231.793H600.474C600.408 231.525 600.28 231.303 600.09 231.127C599.9 230.95 599.648 230.862 599.334 230.862C598.873 230.862 598.509 231.063 598.244 231.464C597.98 231.865 597.847 232.429 597.845 233.154H597.892C598.001 232.989 598.129 232.848 598.279 232.732C598.43 232.614 598.597 232.523 598.779 232.459C598.961 232.395 599.154 232.363 599.358 232.363C599.699 232.363 600.011 232.448 600.294 232.619C600.577 232.787 600.804 233.021 600.974 233.319C601.145 233.616 601.23 233.956 601.23 234.34C601.23 234.708 601.148 235.046 600.983 235.352C600.818 235.656 600.587 235.899 600.288 236.079C599.991 236.257 599.643 236.344 599.241 236.341ZM599.241 235.701C599.485 235.701 599.705 235.64 599.898 235.518C600.094 235.396 600.248 235.232 600.361 235.026C600.475 234.821 600.532 234.592 600.532 234.34C600.532 234.094 600.477 233.87 600.367 233.668C600.258 233.465 600.108 233.303 599.916 233.183C599.726 233.062 599.509 233.002 599.264 233.002C599.08 233.002 598.909 233.039 598.75 233.113C598.591 233.185 598.451 233.283 598.331 233.409C598.213 233.535 598.12 233.68 598.052 233.843C597.984 234.004 597.95 234.173 597.95 234.352C597.95 234.588 598.005 234.809 598.116 235.015C598.228 235.22 598.381 235.386 598.575 235.512C598.771 235.638 598.993 235.701 599.241 235.701ZM602.885 235.497C602.742 235.497 602.619 235.446 602.516 235.343C602.413 235.24 602.362 235.117 602.362 234.974C602.362 234.83 602.413 234.707 602.516 234.605C602.619 234.502 602.742 234.45 602.885 234.45C603.029 234.45 603.152 234.502 603.255 234.605C603.358 234.707 603.409 234.83 603.409 234.974C603.409 235.069 603.385 235.156 603.336 235.236C603.29 235.315 603.227 235.379 603.147 235.428C603.07 235.474 602.982 235.497 602.885 235.497ZM602.885 232.485C602.742 232.485 602.619 232.433 602.516 232.331C602.413 232.228 602.362 232.105 602.362 231.961C602.362 231.818 602.413 231.695 602.516 231.592C602.619 231.489 602.742 231.438 602.885 231.438C603.029 231.438 603.152 231.489 603.255 231.592C603.358 231.695 603.409 231.818 603.409 231.961C603.409 232.056 603.385 232.144 603.336 232.223C603.29 232.303 603.227 232.367 603.147 232.415C603.07 232.462 602.982 232.485 602.885 232.485ZM606.571 236.341C606.133 236.341 605.76 236.221 605.452 235.983C605.143 235.743 604.908 235.395 604.745 234.939C604.582 234.481 604.501 233.929 604.501 233.282C604.501 232.638 604.582 232.088 604.745 231.633C604.91 231.175 605.146 230.826 605.455 230.586C605.765 230.344 606.137 230.222 606.571 230.222C607.005 230.222 607.377 230.344 607.685 230.586C607.995 230.826 608.232 231.175 608.394 231.633C608.559 232.088 608.642 232.638 608.642 233.282C608.642 233.929 608.56 234.481 608.397 234.939C608.234 235.395 607.999 235.743 607.691 235.983C607.382 236.221 607.009 236.341 606.571 236.341ZM606.571 235.701C607.005 235.701 607.343 235.491 607.583 235.073C607.823 234.654 607.944 234.057 607.944 233.282C607.944 232.766 607.888 232.327 607.778 231.964C607.669 231.602 607.512 231.326 607.307 231.136C607.103 230.946 606.858 230.851 606.571 230.851C606.141 230.851 605.804 231.063 605.562 231.487C605.32 231.91 605.199 232.508 605.199 233.282C605.199 233.797 605.253 234.235 605.361 234.596C605.47 234.956 605.626 235.231 605.83 235.419C606.035 235.607 606.282 235.701 606.571 235.701ZM611.689 236.341C611.251 236.341 610.878 236.221 610.569 235.983C610.261 235.743 610.026 235.395 609.863 234.939C609.7 234.481 609.619 233.929 609.619 233.282C609.619 232.638 609.7 232.088 609.863 231.633C610.028 231.175 610.264 230.826 610.572 230.586C610.883 230.344 611.255 230.222 611.689 230.222C612.123 230.222 612.494 230.344 612.803 230.586C613.113 230.826 613.349 231.175 613.512 231.633C613.677 232.088 613.759 232.638 613.759 233.282C613.759 233.929 613.678 234.481 613.515 234.939C613.352 235.395 613.117 235.743 612.808 235.983C612.5 236.221 612.127 236.341 611.689 236.341ZM611.689 235.701C612.123 235.701 612.461 235.491 612.701 235.073C612.941 234.654 613.061 234.057 613.061 233.282C613.061 232.766 613.006 232.327 612.896 231.964C612.787 231.602 612.63 231.326 612.425 231.136C612.221 230.946 611.976 230.851 611.689 230.851C611.259 230.851 610.922 231.063 610.68 231.487C610.438 231.91 610.316 232.508 610.316 233.282C610.316 233.797 610.371 234.235 610.479 234.596C610.588 234.956 610.744 235.231 610.947 235.419C611.153 235.607 611.4 235.701 611.689 235.701Z" fill="black"/>
<path d="M47.7579 24.0236C42.6512 24.0236 38.5134 27.6887 38.5134 32.212C38.5134 36.7354 42.6512 40.4005 47.7579 40.4005C52.8646 40.4005 57.0024 36.7354 57.0024 32.212C57.0024 27.6887 52.8646 24.0236 47.7579 24.0236ZM48.5134 32.8813H43.4912V32.212H47.7579V27.173H48.5134V32.8813Z" fill="black"/>
<path d="M66.4971 37V35.8601L70.0236 32.2064C70.4002 31.8095 70.7106 31.4618 70.9548 31.1633C71.2025 30.8613 71.3874 30.5747 71.5095 30.3033C71.6316 30.0319 71.6927 29.7435 71.6927 29.4382C71.6927 29.0921 71.6113 28.7936 71.4484 28.5426C71.2856 28.2881 71.0634 28.0931 70.7818 27.9574C70.5002 27.8183 70.183 27.7487 69.8302 27.7487C69.457 27.7487 69.1314 27.825 68.8532 27.9777C68.575 28.1304 68.3613 28.3458 68.212 28.624C68.0627 28.9022 67.9881 29.2278 67.9881 29.601H66.4869C66.4869 28.9666 66.6328 28.4119 66.9246 27.937C67.2163 27.4621 67.6166 27.094 68.1255 26.8327C68.6344 26.5681 69.2128 26.4358 69.8608 26.4358C70.5155 26.4358 71.0922 26.5664 71.5909 26.8277C72.093 27.0855 72.4848 27.4383 72.7664 27.8861C73.048 28.3305 73.1888 28.8326 73.1888 29.3924C73.1888 29.7791 73.1158 30.1574 72.97 30.5272C72.8275 30.8969 72.5781 31.3091 72.2219 31.7637C71.8657 32.2149 71.3704 32.7628 70.736 33.4074L68.6649 35.5752V35.6515H73.3567V37H66.4971ZM74.8426 34.9645V33.6923L79.3461 26.5783H80.3486V28.451H79.7125L76.4914 33.5499V33.6313H82.664V34.9645H74.8426ZM79.7838 37V34.5778L79.7939 33.9977V26.5783H81.2849V37H79.7838ZM89.063 31.9367V33.2547H84.4425V31.9367H89.063ZM92.6124 32.3591V37H91.0909V26.5783H92.5921V30.4559H92.6888C92.872 30.0353 93.1518 29.7011 93.5284 29.4534C93.905 29.2058 94.3969 29.082 95.0041 29.082C95.5401 29.082 96.0083 29.1922 96.4086 29.4127C96.8123 29.6332 97.1244 29.9623 97.3449 30.3999C97.5688 30.8342 97.6808 31.377 97.6808 32.0283V37H96.1593V32.2115C96.1593 31.6382 96.0117 31.1938 95.7166 30.8783C95.4214 30.5594 95.0109 30.3999 94.4851 30.3999C94.1255 30.3999 93.8032 30.4763 93.5182 30.6289C93.2366 30.7816 93.0144 31.0055 92.8516 31.3006C92.6922 31.5924 92.6124 31.9452 92.6124 32.3591ZM103.004 37.1578C102.271 37.1578 101.631 36.9898 101.085 36.654C100.539 36.3181 100.115 35.8483 99.813 35.2444C99.511 34.6405 99.3601 33.9349 99.3601 33.1275C99.3601 32.3167 99.511 31.6077 99.813 31.0004C100.115 30.3932 100.539 29.9216 101.085 29.5857C101.631 29.2499 102.271 29.082 103.004 29.082C103.736 29.082 104.376 29.2499 104.922 29.5857C105.468 29.9216 105.892 30.3932 106.194 31.0004C106.496 31.6077 106.647 32.3167 106.647 33.1275C106.647 33.9349 106.496 34.6405 106.194 35.2444C105.892 35.8483 105.468 36.3181 104.922 36.654C104.376 36.9898 103.736 37.1578 103.004 37.1578ZM103.009 35.8805C103.484 35.8805 103.877 35.755 104.189 35.5039C104.501 35.2529 104.732 34.9187 104.881 34.5015C105.034 34.0842 105.11 33.6245 105.11 33.1224C105.11 32.6237 105.034 32.1657 104.881 31.7485C104.732 31.3278 104.501 30.9902 104.189 30.7358C103.877 30.4814 103.484 30.3541 103.009 30.3541C102.53 30.3541 102.133 30.4814 101.818 30.7358C101.506 30.9902 101.273 31.3278 101.121 31.7485C100.972 32.1657 100.897 32.6237 100.897 33.1224C100.897 33.6245 100.972 34.0842 101.121 34.5015C101.273 34.9187 101.506 35.2529 101.818 35.5039C102.133 35.755 102.53 35.8805 103.009 35.8805ZM113.297 33.7585V29.1837H114.823V37H113.327V35.6464H113.246C113.066 36.0637 112.778 36.4114 112.381 36.6896C111.987 36.9644 111.497 37.1018 110.91 37.1018C110.408 37.1018 109.964 36.9915 109.577 36.771C109.194 36.5471 108.892 36.2164 108.671 35.7787C108.454 35.3411 108.345 34.8 108.345 34.1554V29.1837H109.867V33.9722C109.867 34.5048 110.015 34.9289 110.31 35.2444C110.605 35.5599 110.988 35.7177 111.46 35.7177C111.745 35.7177 112.028 35.6464 112.31 35.5039C112.595 35.3614 112.83 35.146 113.017 34.8577C113.207 34.5693 113.3 34.2029 113.297 33.7585ZM116.868 37V29.1837H118.338V30.4254H118.42C118.562 30.0047 118.813 29.674 119.173 29.4331C119.536 29.1888 119.947 29.0667 120.404 29.0667C120.499 29.0667 120.611 29.0701 120.74 29.0769C120.873 29.0837 120.976 29.0921 121.051 29.1023V30.5577C120.99 30.5407 120.881 30.5221 120.725 30.5017C120.569 30.478 120.413 30.4661 120.257 30.4661C119.897 30.4661 119.577 30.5424 119.295 30.6951C119.017 30.8444 118.796 31.053 118.634 31.321C118.471 31.5856 118.389 31.8875 118.389 32.2268V37H116.868ZM129.88 29.1837V30.405H125.463V29.1837H129.88ZM126.674 37V28.2779C126.674 27.7894 126.781 27.384 126.994 27.0617C127.208 26.7361 127.491 26.4935 127.844 26.3341C128.197 26.1712 128.58 26.0898 128.994 26.0898C129.3 26.0898 129.561 26.1152 129.778 26.1661C129.995 26.2136 130.156 26.2577 130.261 26.2984L129.905 27.5299C129.834 27.5095 129.742 27.4858 129.63 27.4587C129.518 27.4281 129.383 27.4129 129.223 27.4129C128.853 27.4129 128.589 27.5045 128.429 27.6877C128.273 27.8708 128.195 28.1355 128.195 28.4815V37H126.674ZM134.434 37.1578C133.701 37.1578 133.062 36.9898 132.516 36.654C131.969 36.3181 131.545 35.8483 131.243 35.2444C130.942 34.6405 130.791 33.9349 130.791 33.1275C130.791 32.3167 130.942 31.6077 131.243 31.0004C131.545 30.3932 131.969 29.9216 132.516 29.5857C133.062 29.2499 133.701 29.082 134.434 29.082C135.167 29.082 135.806 29.2499 136.353 29.5857C136.899 29.9216 137.323 30.3932 137.625 31.0004C137.927 31.6077 138.078 32.3167 138.078 33.1275C138.078 33.9349 137.927 34.6405 137.625 35.2444C137.323 35.8483 136.899 36.3181 136.353 36.654C135.806 36.9898 135.167 37.1578 134.434 37.1578ZM134.439 35.8805C134.914 35.8805 135.308 35.755 135.62 35.5039C135.932 35.2529 136.163 34.9187 136.312 34.5015C136.464 34.0842 136.541 33.6245 136.541 33.1224C136.541 32.6237 136.464 32.1657 136.312 31.7485C136.163 31.3278 135.932 30.9902 135.62 30.7358C135.308 30.4814 134.914 30.3541 134.439 30.3541C133.961 30.3541 133.564 30.4814 133.248 30.7358C132.936 30.9902 132.704 31.3278 132.551 31.7485C132.402 32.1657 132.327 32.6237 132.327 33.1224C132.327 33.6245 132.402 34.0842 132.551 34.5015C132.704 34.9187 132.936 35.2529 133.248 35.5039C133.564 35.755 133.961 35.8805 134.439 35.8805ZM139.776 37V29.1837H141.247V30.4254H141.328C141.471 30.0047 141.722 29.674 142.081 29.4331C142.444 29.1888 142.855 29.0667 143.313 29.0667C143.408 29.0667 143.52 29.0701 143.649 29.0769C143.781 29.0837 143.884 29.0921 143.959 29.1023V30.5577C143.898 30.5407 143.789 30.5221 143.633 30.5017C143.477 30.478 143.321 30.4661 143.165 30.4661C142.805 30.4661 142.485 30.5424 142.203 30.6951C141.925 30.8444 141.705 31.053 141.542 31.321C141.379 31.5856 141.298 31.8875 141.298 32.2268V37H139.776ZM148.364 37.1578C147.594 37.1578 146.931 36.9932 146.375 36.6642C145.822 36.3317 145.394 35.8652 145.092 35.2648C144.794 34.6609 144.645 33.9536 144.645 33.1428C144.645 32.3421 144.794 31.6365 145.092 31.0259C145.394 30.4152 145.815 29.9386 146.354 29.5959C146.897 29.2533 147.532 29.082 148.258 29.082C148.699 29.082 149.126 29.1549 149.54 29.3008C149.954 29.4467 150.325 29.6756 150.654 29.9878C150.983 30.2999 151.243 30.7053 151.433 31.204C151.623 31.6993 151.718 32.3014 151.718 33.0105V33.5499H145.505V32.41H150.227C150.227 32.0097 150.146 31.6552 149.983 31.3464C149.82 31.0343 149.591 30.7884 149.296 30.6086C149.004 30.4288 148.661 30.3389 148.268 30.3389C147.84 30.3389 147.467 30.444 147.148 30.6544C146.833 30.8613 146.589 31.1327 146.415 31.4686C146.246 31.801 146.161 32.1623 146.161 32.5525V33.443C146.161 33.9654 146.253 34.4099 146.436 34.7762C146.622 35.1426 146.882 35.4225 147.214 35.6159C147.547 35.8059 147.935 35.9009 148.38 35.9009C148.668 35.9009 148.931 35.8601 149.168 35.7787C149.406 35.6939 149.611 35.5684 149.784 35.4022C149.957 35.2359 150.09 35.0307 150.181 34.7864L151.621 35.0459C151.506 35.47 151.299 35.8415 151 36.1604C150.705 36.4759 150.334 36.7218 149.886 36.8982C149.442 37.0713 148.934 37.1578 148.364 37.1578ZM156.699 37.1578C155.942 37.1578 155.291 36.9864 154.744 36.6438C154.202 36.2978 153.784 35.8211 153.493 35.2139C153.201 34.6066 153.055 33.9112 153.055 33.1275C153.055 32.3337 153.204 31.6331 153.503 31.0259C153.801 30.4152 154.222 29.9386 154.765 29.5959C155.308 29.2533 155.947 29.082 156.683 29.082C157.277 29.082 157.806 29.1922 158.271 29.4127C158.736 29.6298 159.111 29.9352 159.396 30.3287C159.684 30.7222 159.855 31.1819 159.91 31.7077H158.429C158.347 31.3414 158.161 31.0259 157.869 30.7612C157.581 30.4966 157.194 30.3643 156.709 30.3643C156.285 30.3643 155.913 30.4763 155.594 30.7002C155.279 30.9207 155.033 31.2362 154.856 31.6467C154.68 32.0538 154.592 32.5355 154.592 33.0919C154.592 33.6618 154.678 34.1537 154.851 34.5676C155.024 34.9815 155.269 35.3021 155.584 35.5294C155.903 35.7567 156.278 35.8703 156.709 35.8703C156.997 35.8703 157.258 35.8177 157.492 35.7126C157.73 35.604 157.928 35.4497 158.088 35.2495C158.251 35.0493 158.364 34.8085 158.429 34.5269H159.91C159.855 35.0324 159.691 35.4836 159.416 35.8805C159.141 36.2774 158.773 36.5895 158.312 36.8168C157.854 37.0441 157.316 37.1578 156.699 37.1578ZM163.811 37.173C163.316 37.173 162.868 37.0814 162.468 36.8982C162.068 36.7117 161.75 36.442 161.516 36.0891C161.286 35.7363 161.17 35.3038 161.17 34.7915C161.17 34.3505 161.255 33.9875 161.425 33.7025C161.594 33.4176 161.823 33.192 162.112 33.0257C162.4 32.8595 162.722 32.734 163.079 32.6492C163.435 32.5643 163.798 32.4999 164.168 32.4558C164.636 32.4015 165.016 32.3574 165.307 32.3235C165.599 32.2862 165.811 32.2268 165.943 32.1454C166.076 32.064 166.142 31.9316 166.142 31.7485V31.7128C166.142 31.2684 166.016 30.9241 165.765 30.6798C165.518 30.4356 165.148 30.3134 164.656 30.3134C164.144 30.3134 163.74 30.4271 163.445 30.6544C163.153 30.8783 162.951 31.1276 162.839 31.4024L161.409 31.0767C161.579 30.6018 161.827 30.2184 162.152 29.9267C162.481 29.6315 162.86 29.4178 163.287 29.2855C163.715 29.1498 164.164 29.082 164.636 29.082C164.948 29.082 165.279 29.1193 165.628 29.1939C165.981 29.2652 166.31 29.3975 166.615 29.5908C166.924 29.7842 167.177 30.0607 167.373 30.4203C167.57 30.7765 167.669 31.2396 167.669 31.8095V37H166.183V35.9314H166.122C166.023 36.1281 165.876 36.3215 165.679 36.5115C165.482 36.7015 165.229 36.8592 164.921 36.9847C164.612 37.1103 164.242 37.173 163.811 37.173ZM164.142 35.9517C164.563 35.9517 164.922 35.8686 165.221 35.7024C165.523 35.5362 165.752 35.319 165.908 35.051C166.067 34.7796 166.147 34.4896 166.147 34.1809V33.1733C166.093 33.2276 165.988 33.2785 165.832 33.326C165.679 33.3701 165.504 33.4091 165.307 33.443C165.111 33.4735 164.919 33.5024 164.732 33.5295C164.546 33.5533 164.39 33.5736 164.264 33.5906C163.969 33.6279 163.699 33.6906 163.455 33.7789C163.214 33.8671 163.021 33.9943 162.875 34.1605C162.732 34.3233 162.661 34.5405 162.661 34.8119C162.661 35.1884 162.8 35.4734 163.079 35.6668C163.357 35.8567 163.711 35.9517 164.142 35.9517ZM175.552 31.092L174.173 31.3363C174.116 31.1599 174.024 30.9919 173.898 30.8325C173.776 30.673 173.61 30.5424 173.4 30.4407C173.189 30.3389 172.926 30.288 172.611 30.288C172.18 30.288 171.821 30.3847 171.532 30.578C171.244 30.768 171.1 31.014 171.1 31.3159C171.1 31.5771 171.196 31.7875 171.39 31.9469C171.583 32.1064 171.895 32.237 172.326 32.3387L173.568 32.6237C174.287 32.7899 174.823 33.0461 175.176 33.3921C175.529 33.7381 175.705 34.1876 175.705 34.7406C175.705 35.2088 175.569 35.6261 175.298 35.9924C175.03 36.3554 174.655 36.6404 174.173 36.8474C173.695 37.0543 173.14 37.1578 172.509 37.1578C171.634 37.1578 170.92 36.9712 170.367 36.598C169.814 36.2214 169.475 35.6871 169.349 34.9951L170.82 34.7712C170.911 35.1545 171.1 35.4446 171.385 35.6413C171.67 35.8347 172.041 35.9314 172.499 35.9314C172.998 35.9314 173.396 35.8279 173.695 35.621C173.993 35.4106 174.143 35.1545 174.143 34.8526C174.143 34.6083 174.051 34.4031 173.868 34.2368C173.688 34.0706 173.412 33.9451 173.038 33.8603L171.715 33.5702C170.986 33.404 170.447 33.1394 170.097 32.7764C169.751 32.4134 169.578 31.9537 169.578 31.3973C169.578 30.936 169.707 30.5322 169.965 30.1862C170.223 29.8402 170.579 29.5705 171.033 29.3771C171.488 29.1803 172.009 29.082 172.596 29.082C173.44 29.082 174.105 29.2652 174.59 29.6315C175.076 29.9945 175.396 30.4814 175.552 31.092ZM181.026 29.1837V30.405H176.757V29.1837H181.026ZM177.902 27.3111H179.423V34.705C179.423 35.0001 179.468 35.2224 179.556 35.3716C179.644 35.5175 179.758 35.6176 179.897 35.6719C180.039 35.7227 180.194 35.7482 180.36 35.7482C180.482 35.7482 180.589 35.7397 180.68 35.7227C180.772 35.7058 180.843 35.6922 180.894 35.682L181.169 36.939C181.081 36.9729 180.955 37.0068 180.792 37.0407C180.63 37.078 180.426 37.0984 180.182 37.1018C179.781 37.1086 179.408 37.0373 179.062 36.8881C178.716 36.7388 178.436 36.5081 178.223 36.196C178.009 35.8839 177.902 35.4921 177.902 35.0205V27.3111Z" fill="black"/>
<g clip-path="url(#clip4_11_470)">
<path d="M37.9224 155.448C37.7027 155.526 37.4944 155.627 37.3008 155.75C36.4389 155.393 35.6315 154.863 34.9319 154.158C32.0907 151.327 32.0907 146.724 34.9319 143.892C35.2225 143.602 35.5277 143.34 35.8547 143.108C36.3997 142.723 37.2571 143.369 37.199 143.972C37.0028 146.049 37.7003 148.205 39.2989 149.795C39.9091 150.407 40.6014 150.887 41.3408 151.236C39.3995 151.556 37.9188 153.243 37.9188 155.275C37.9188 155.333 37.92 155.391 37.9224 155.448Z" fill="black"/>
<path d="M43.5824 146.535L44.1216 148.323C44.0685 148.366 44.0161 148.409 43.9645 148.454L42.393 147.388L40.5744 148.622L41.2037 146.535L39.4541 145.213L41.66 145.151L42.393 143.106L43.126 145.151L45.3319 145.213L43.5824 146.535Z" fill="black"/>
<path d="M49.8001 145.322L50.9341 144.47L49.5096 144.435L49.0325 143.106L48.5553 144.435L47.1308 144.47L48.2649 145.322L47.8569 146.672L49.0325 145.874L50.208 146.672L49.8001 145.322Z" fill="black"/>
<path d="M39.9659 162.44H53.2722C55.5334 162.44 57.3665 160.607 57.3665 158.346C57.3665 156.425 56.0444 154.814 54.2607 154.371C54.2839 154.164 54.2958 153.953 54.2958 153.74C54.2958 150.63 51.7753 148.11 48.6662 148.11C46.0874 148.11 43.9136 149.844 43.247 152.209C43.1773 152.206 43.1072 152.204 43.0366 152.204C40.7754 152.204 38.9424 154.037 38.9424 156.298C38.9424 156.357 38.9436 156.414 38.946 156.472C37.7515 156.892 36.8953 158.031 36.8953 159.369C36.8953 161.065 38.2701 162.44 39.9659 162.44Z" fill="black"/>
</g>
<path d="M149.23 152.472L146.641 154.457L147.572 157.589L144.88 155.737L142.188 157.589L143.12 154.457L140.53 152.472L143.795 152.38L144.88 149.309L145.965 152.38L149.23 152.472ZM152.813 159.544L151.134 160.824L151.738 162.851L149.998 161.653L148.258 162.851L148.862 160.824L147.183 159.544L149.292 159.493L149.998 157.497L150.704 159.493L152.813 159.544ZM150.479 164.611C151.329 164.529 152.24 165.737 151.697 166.505C151.37 166.965 151.022 167.395 150.592 167.805C146.59 171.827 140.111 171.827 136.119 167.805C132.117 163.813 132.117 157.323 136.119 153.331C136.528 152.922 136.958 152.554 137.419 152.226C138.186 151.684 139.394 152.595 139.312 153.444C139.036 156.371 140.018 159.411 142.27 161.653C144.512 163.905 147.542 164.887 150.479 164.611Z" fill="black"/>
<path d="M763.69 133.578V144H762.112V135.156H762.051L759.558 136.784V135.278L762.158 133.578H763.69ZM770.147 144.142C769.682 144.136 769.224 144.051 768.773 143.888C768.325 143.725 767.918 143.454 767.552 143.074C767.186 142.694 766.892 142.183 766.672 141.542C766.455 140.901 766.346 140.1 766.346 139.14C766.346 138.231 766.436 137.424 766.616 136.718C766.799 136.012 767.062 135.417 767.404 134.932C767.747 134.443 768.161 134.072 768.646 133.817C769.131 133.563 769.676 133.436 770.28 133.436C770.9 133.436 771.452 133.558 771.933 133.802C772.415 134.046 772.805 134.384 773.104 134.815C773.406 135.246 773.597 135.736 773.679 136.285H772.127C772.022 135.851 771.813 135.497 771.501 135.222C771.189 134.947 770.782 134.81 770.28 134.81C769.516 134.81 768.921 135.142 768.493 135.807C768.069 136.472 767.856 137.397 767.852 138.581H767.929C768.108 138.285 768.329 138.034 768.59 137.827C768.855 137.617 769.15 137.456 769.476 137.344C769.805 137.229 770.151 137.171 770.514 137.171C771.117 137.171 771.664 137.319 772.152 137.614C772.644 137.905 773.036 138.309 773.328 138.825C773.619 139.34 773.765 139.931 773.765 140.596C773.765 141.261 773.614 141.863 773.312 142.402C773.014 142.942 772.593 143.369 772.05 143.684C771.508 143.997 770.873 144.149 770.147 144.142ZM770.142 142.819C770.542 142.819 770.9 142.721 771.216 142.524C771.531 142.328 771.781 142.063 771.964 141.73C772.147 141.398 772.239 141.026 772.239 140.616C772.239 140.216 772.149 139.851 771.969 139.522C771.793 139.193 771.548 138.932 771.236 138.738C770.928 138.545 770.575 138.448 770.178 138.448C769.876 138.448 769.596 138.506 769.338 138.621C769.084 138.737 768.86 138.896 768.666 139.1C768.473 139.303 768.32 139.537 768.208 139.802C768.1 140.063 768.046 140.34 768.046 140.631C768.046 141.021 768.135 141.383 768.315 141.715C768.498 142.048 768.748 142.316 769.063 142.519C769.382 142.719 769.742 142.819 770.142 142.819ZM777.883 138.29C777.442 138.29 777.04 138.184 776.677 137.97C776.318 137.753 776.029 137.463 775.812 137.1C775.599 136.737 775.492 136.335 775.492 135.894C775.492 135.453 775.599 135.052 775.812 134.693C776.029 134.33 776.318 134.041 776.677 133.828C777.04 133.611 777.442 133.502 777.883 133.502C778.324 133.502 778.726 133.611 779.089 133.828C779.452 134.041 779.741 134.33 779.954 134.693C780.172 135.052 780.28 135.453 780.28 135.894C780.28 136.335 780.172 136.737 779.954 137.1C779.741 137.463 779.452 137.753 779.089 137.97C778.726 138.184 778.324 138.29 777.883 138.29ZM777.883 137.13C778.114 137.13 778.323 137.074 778.509 136.962C778.696 136.85 778.843 136.701 778.952 136.514C779.064 136.328 779.12 136.121 779.12 135.894C779.12 135.666 779.064 135.459 778.952 135.273C778.843 135.086 778.696 134.939 778.509 134.83C778.323 134.718 778.114 134.662 777.883 134.662C777.656 134.662 777.449 134.718 777.263 134.83C777.076 134.939 776.927 135.086 776.815 135.273C776.706 135.459 776.652 135.666 776.652 135.894C776.652 136.121 776.706 136.328 776.815 136.514C776.927 136.701 777.076 136.85 777.263 136.962C777.449 137.074 777.656 137.13 777.883 137.13Z" fill="black"/>
<path d="M771.894 206.683H775.351C777.904 206.683 779.973 204.85 779.973 202.589C779.973 200.669 778.48 199.057 776.467 198.615C776.493 198.407 776.506 198.197 776.506 197.983C776.506 194.874 773.661 192.353 770.151 192.353C767.239 192.353 764.785 194.087 764.033 196.453C763.954 196.449 763.875 196.448 763.795 196.448C761.242 196.448 759.173 198.281 759.173 200.542C759.173 200.6 759.174 200.658 759.177 200.715C757.829 201.136 756.862 202.274 756.862 203.613C756.862 205.308 758.414 206.683 760.329 206.683H763.62L768.57 199.01C769.158 198.099 770.729 198.469 770.729 199.518V203.613H771.884C772.771 203.613 773.328 204.462 772.887 205.144L771.894 206.683Z" fill="black"/>
<path d="M764.951 206.683L769.573 199.518V204.636H771.884L767.262 211.801V206.683H764.951Z" fill="black"/>
<path d="M757.1 211.045V217H756.379V211.801H756.344L754.89 212.766V212.033L756.379 211.045H757.1ZM760.674 217.081C760.333 217.081 760.026 217.014 759.752 216.878C759.479 216.742 759.26 216.556 759.095 216.32C758.93 216.083 758.84 215.814 758.825 215.511H759.523C759.55 215.781 759.672 216.004 759.889 216.18C760.108 216.354 760.37 216.442 760.674 216.442C760.918 216.442 761.135 216.385 761.325 216.27C761.517 216.156 761.668 215.999 761.776 215.799C761.887 215.597 761.942 215.37 761.942 215.116C761.942 214.856 761.885 214.624 761.77 214.421C761.658 214.215 761.503 214.053 761.305 213.935C761.107 213.817 760.881 213.757 760.627 213.755C760.445 213.753 760.258 213.781 760.066 213.839C759.874 213.895 759.716 213.968 759.592 214.057L758.918 213.976L759.278 211.045H762.372V211.684H759.883L759.674 213.441H759.709C759.831 213.344 759.984 213.263 760.168 213.199C760.352 213.135 760.544 213.103 760.744 213.103C761.108 213.103 761.433 213.191 761.718 213.365C762.005 213.538 762.23 213.774 762.393 214.075C762.557 214.375 762.64 214.718 762.64 215.104C762.64 215.484 762.554 215.823 762.384 216.122C762.215 216.418 761.983 216.653 761.686 216.826C761.389 216.996 761.052 217.081 760.674 217.081ZM764.446 215.372L764.435 214.523H764.574L766.528 212.534H767.377L765.295 214.639H765.237L764.446 215.372ZM763.806 217V211.045H764.493V217H763.806ZM766.645 217L764.9 214.79L765.388 214.313L767.517 217H766.645ZM768.261 217V212.534H768.924V213.231H768.982C769.075 212.993 769.225 212.808 769.432 212.676C769.64 212.542 769.889 212.475 770.18 212.475C770.474 212.475 770.72 212.542 770.915 212.676C771.113 212.808 771.267 212.993 771.378 213.231H771.424C771.539 213.001 771.71 212.818 771.939 212.682C772.168 212.544 772.442 212.475 772.762 212.475C773.161 212.475 773.488 212.6 773.742 212.851C773.996 213.099 774.123 213.485 774.123 214.011V217H773.437V214.011C773.437 213.681 773.346 213.446 773.166 213.304C772.986 213.163 772.774 213.092 772.529 213.092C772.215 213.092 771.972 213.187 771.799 213.377C771.627 213.565 771.541 213.803 771.541 214.092V217H770.843V213.941C770.843 213.687 770.76 213.482 770.596 213.327C770.431 213.17 770.219 213.092 769.959 213.092C769.78 213.092 769.614 213.139 769.459 213.234C769.305 213.329 769.181 213.461 769.086 213.63C768.993 213.797 768.947 213.989 768.947 214.208V217H768.261ZM777.483 210.766L775.564 217.896H774.936L776.855 210.766H777.483ZM778.983 214.313V217H778.296V211.045H778.983V213.231H779.041C779.145 213.001 779.302 212.818 779.512 212.682C779.723 212.544 780.004 212.475 780.355 212.475C780.659 212.475 780.926 212.536 781.155 212.659C781.383 212.779 781.561 212.964 781.687 213.214C781.815 213.462 781.879 213.778 781.879 214.162V217H781.192V214.208C781.192 213.854 781.1 213.579 780.916 213.386C780.734 213.19 780.481 213.092 780.157 213.092C779.932 213.092 779.731 213.139 779.552 213.234C779.376 213.329 779.236 213.468 779.134 213.65C779.033 213.832 778.983 214.053 778.983 214.313Z" fill="black"/>
<path d="M762.203 228.341C761.804 228.341 761.451 228.27 761.145 228.128C760.841 227.985 760.603 227.788 760.433 227.538C760.262 227.286 760.178 226.999 760.18 226.677C760.178 226.425 760.227 226.193 760.328 225.979C760.429 225.764 760.566 225.585 760.741 225.441C760.917 225.296 761.114 225.204 761.331 225.165V225.13C761.046 225.057 760.819 224.897 760.651 224.651C760.482 224.402 760.399 224.12 760.401 223.804C760.399 223.502 760.475 223.231 760.63 222.993C760.785 222.755 760.999 222.567 761.27 222.429C761.543 222.291 761.854 222.222 762.203 222.222C762.548 222.222 762.857 222.291 763.128 222.429C763.4 222.567 763.613 222.755 763.768 222.993C763.925 223.231 764.004 223.502 764.006 223.804C764.004 224.12 763.918 224.402 763.747 224.651C763.579 224.897 763.355 225.057 763.076 225.13V225.165C763.291 225.204 763.485 225.296 763.657 225.441C763.83 225.585 763.968 225.764 764.07 225.979C764.173 226.193 764.225 226.425 764.227 226.677C764.225 226.999 764.138 227.286 763.966 227.538C763.795 227.788 763.558 227.985 763.253 228.128C762.951 228.27 762.601 228.341 762.203 228.341ZM762.203 227.701C762.473 227.701 762.706 227.657 762.901 227.57C763.097 227.483 763.248 227.36 763.355 227.201C763.462 227.042 763.516 226.856 763.518 226.642C763.516 226.418 763.458 226.219 763.343 226.046C763.229 225.874 763.073 225.738 762.875 225.639C762.679 225.54 762.455 225.491 762.203 225.491C761.949 225.491 761.723 225.54 761.523 225.639C761.325 225.738 761.169 225.874 761.055 226.046C760.942 226.219 760.887 226.418 760.889 226.642C760.887 226.856 760.939 227.042 761.043 227.201C761.15 227.36 761.302 227.483 761.5 227.57C761.697 227.657 761.932 227.701 762.203 227.701ZM762.203 224.874C762.417 224.874 762.606 224.832 762.77 224.746C762.937 224.661 763.068 224.542 763.163 224.389C763.258 224.236 763.306 224.056 763.308 223.851C763.306 223.649 763.259 223.474 763.166 223.325C763.073 223.173 762.944 223.057 762.779 222.976C762.614 222.892 762.422 222.851 762.203 222.851C761.98 222.851 761.786 222.892 761.619 222.976C761.452 223.057 761.323 223.173 761.232 223.325C761.141 223.474 761.096 223.649 761.098 223.851C761.096 224.056 761.142 224.236 761.235 224.389C761.33 224.542 761.461 224.661 761.628 224.746C761.794 224.832 761.986 224.874 762.203 224.874ZM765.853 227.497C765.71 227.497 765.587 227.446 765.484 227.343C765.381 227.24 765.33 227.117 765.33 226.974C765.33 226.83 765.381 226.707 765.484 226.605C765.587 226.502 765.71 226.45 765.853 226.45C765.997 226.45 766.12 226.502 766.223 226.605C766.326 226.707 766.377 226.83 766.377 226.974C766.377 227.069 766.353 227.156 766.304 227.236C766.258 227.315 766.195 227.379 766.115 227.428C766.038 227.474 765.95 227.497 765.853 227.497ZM765.853 224.485C765.71 224.485 765.587 224.433 765.484 224.331C765.381 224.228 765.33 224.105 765.33 223.961C765.33 223.818 765.381 223.695 765.484 223.592C765.587 223.489 765.71 223.438 765.853 223.438C765.997 223.438 766.12 223.489 766.223 223.592C766.326 223.695 766.377 223.818 766.377 223.961C766.377 224.056 766.353 224.144 766.304 224.223C766.258 224.303 766.195 224.367 766.115 224.415C766.038 224.462 765.95 224.485 765.853 224.485ZM769.539 228.341C769.101 228.341 768.728 228.221 768.42 227.983C768.111 227.743 767.876 227.395 767.713 226.939C767.55 226.481 767.469 225.929 767.469 225.282C767.469 224.638 767.55 224.088 767.713 223.633C767.878 223.175 768.114 222.826 768.423 222.586C768.733 222.344 769.105 222.222 769.539 222.222C769.973 222.222 770.345 222.344 770.653 222.586C770.963 222.826 771.2 223.175 771.362 223.633C771.527 224.088 771.61 224.638 771.61 225.282C771.61 225.929 771.528 226.481 771.365 226.939C771.202 227.395 770.967 227.743 770.659 227.983C770.35 228.221 769.977 228.341 769.539 228.341ZM769.539 227.701C769.973 227.701 770.311 227.491 770.551 227.073C770.791 226.654 770.912 226.057 770.912 225.282C770.912 224.766 770.856 224.327 770.746 223.964C770.637 223.602 770.48 223.326 770.275 223.136C770.071 222.946 769.826 222.851 769.539 222.851C769.109 222.851 768.772 223.063 768.53 223.487C768.288 223.91 768.167 224.508 768.167 225.282C768.167 225.797 768.221 226.235 768.33 226.596C768.438 226.956 768.594 227.231 768.798 227.419C769.003 227.607 769.25 227.701 769.539 227.701ZM774.657 228.341C774.219 228.341 773.846 228.221 773.537 227.983C773.229 227.743 772.994 227.395 772.831 226.939C772.668 226.481 772.587 225.929 772.587 225.282C772.587 224.638 772.668 224.088 772.831 223.633C772.996 223.175 773.232 222.826 773.54 222.586C773.851 222.344 774.223 222.222 774.657 222.222C775.091 222.222 775.462 222.344 775.771 222.586C776.081 222.826 776.317 223.175 776.48 223.633C776.645 224.088 776.727 224.638 776.727 225.282C776.727 225.929 776.646 226.481 776.483 226.939C776.32 227.395 776.085 227.743 775.776 227.983C775.468 228.221 775.095 228.341 774.657 228.341ZM774.657 227.701C775.091 227.701 775.429 227.491 775.669 227.073C775.909 226.654 776.029 226.057 776.029 225.282C776.029 224.766 775.974 224.327 775.864 223.964C775.755 223.602 775.598 223.326 775.393 223.136C775.189 222.946 774.944 222.851 774.657 222.851C774.227 222.851 773.89 223.063 773.648 223.487C773.406 223.91 773.284 224.508 773.284 225.282C773.284 225.797 773.339 226.235 773.447 226.596C773.556 226.956 773.712 227.231 773.915 227.419C774.121 227.607 774.368 227.701 774.657 227.701Z" fill="black"/>
</g>
</g>
<rect x="1.5" y="1.5" width="995" height="274" rx="18.5" stroke="white" stroke-width="3"/>
<defs>
<clipPath id="clip0_11_470">
<rect width="998" height="277" rx="20" fill="white"/>
</clipPath>
<clipPath id="clip1_11_470">
<rect width="998" height="262" fill="white" transform="translate(-2 24)"/>
</clipPath>
<clipPath id="clip2_11_470">
<rect width="24.5654" height="24.5654" fill="white" transform="translate(230.348 183.733)"/>
</clipPath>
<clipPath id="clip3_11_470">
<rect width="24" height="24" fill="white" transform="translate(593 191.353)"/>
</clipPath>
<clipPath id="clip4_11_470">
<rect width="24.5654" height="24.5654" fill="white" transform="translate(32.801 140.945)"/>
</clipPath>
</defs>
</svg>
