<svg width="22" height="21" viewBox="0 0 22 21" fill="none" xmlns="http://www.w3.org/2000/svg">
<path fill-rule="evenodd" clip-rule="evenodd" d="M14.894 20.275C11.876 20.275 8.32496 18.7207 5.34296 15.8295C0.584957 11.2123 -0.657043 5.18545 2.51496 2.10798C3.45196 1.19988 4.59196 0.646864 5.90696 0.462526L6.66696 0.355804L9.46396 6.68344L6.66696 8.03978C7.31496 9.23118 8.29696 10.4624 9.58596 11.713C10.815 12.9053 12.083 13.8513 13.356 14.5226L14.67 12.0263L21.153 12.9247L21.191 13.7271C21.286 15.7247 20.696 17.4003 19.485 18.5742C18.301 19.7229 16.692 20.275 14.894 20.275ZM5.46096 2.55233C4.88596 2.73958 4.37196 3.05102 3.92896 3.48178C1.62896 5.71227 2.92496 10.7389 6.75696 14.4576C10.591 18.1764 15.771 19.4309 18.071 17.2014C18.837 16.4582 19.113 15.4783 19.181 14.6109L15.814 14.1443L15.168 15.3997C14.924 15.8732 14.503 16.2215 13.982 16.3796C13.461 16.5397 12.883 16.4824 12.399 16.2273C10.959 15.4676 9.53596 14.4101 8.17096 13.0858C6.74096 11.6984 5.64196 10.312 4.90296 8.96438C4.64596 8.49383 4.59696 7.95634 4.76296 7.4499C4.92896 6.94636 5.28796 6.53985 5.77496 6.30312L6.88096 5.7666L5.46096 2.55233Z" fill="#92989F"/>
</svg>
