<svg width="17" height="22" viewBox="0 0 17 22" fill="none" xmlns="http://www.w3.org/2000/svg">
<path d="M9.17704 1.33333L8.49996 0.75L7.82288 1.33333C7.45829 1.60417 0.166626 7.95833 0.166626 13.5833C0.166626 15.7935 1.0446 17.9131 2.6074 19.4759C4.17021 21.0387 6.28982 21.9167 8.49996 21.9167C10.7101 21.9167 12.8297 21.0387 14.3925 19.4759C15.9553 17.9131 16.8333 15.7935 16.8333 13.5833C16.8333 7.95833 9.54163 1.60417 9.17704 1.33333ZM10.8229 18.2396L9.89579 16.375C10.4147 16.116 10.8512 15.7176 11.1566 15.2246C11.462 14.7316 11.6242 14.1633 11.625 13.5833H13.7083C13.7073 14.5509 13.4368 15.499 12.9272 16.3214C12.4175 17.1439 11.6889 17.8081 10.8229 18.2396Z" fill="black"/>
</svg>
