<svg width="15" height="23" viewBox="0 0 15 23" fill="none" xmlns="http://www.w3.org/2000/svg">
<path d="M3.33337 4.20834C3.33337 3.10327 3.77236 2.04346 4.55376 1.26206C5.33516 0.480659 6.39497 0.0416718 7.50004 0.0416718C8.60511 0.0416718 9.66492 0.480659 10.4463 1.26206C11.2277 2.04346 11.6667 3.10327 11.6667 4.20834V9.6823C12.9407 10.5694 13.8982 11.8398 14.4001 13.3088C14.902 14.7778 14.922 16.3686 14.4571 17.8498C13.9922 19.3309 13.0668 20.625 11.8155 21.5437C10.5642 22.4625 9.0524 22.9579 7.50004 22.9579C5.94769 22.9579 4.43584 22.4625 3.18456 21.5437C1.93327 20.625 1.00785 19.3309 0.542989 17.8498C0.0781263 16.3686 0.0980852 14.7778 0.59996 13.3088C1.10184 11.8398 2.05943 10.5694 3.33337 9.6823V4.20834ZM4.52504 11.3906C3.6148 12.0241 2.93051 12.9315 2.57176 13.9808C2.21302 15.0301 2.19857 16.1666 2.5305 17.2247C2.86243 18.2828 3.52343 19.2073 4.41726 19.8637C5.31109 20.5201 6.39109 20.874 7.50004 20.874C8.60899 20.874 9.68899 20.5201 10.5828 19.8637C11.4767 19.2073 12.1376 18.2828 12.4696 17.2247C12.8015 16.1666 12.7871 15.0301 12.4283 13.9808C12.0696 12.9315 11.3853 12.0241 10.475 11.3906L9.58337 10.7688V4.20834C9.58337 3.6558 9.36388 3.1259 8.97318 2.7352C8.58248 2.3445 8.05258 2.12501 7.50004 2.12501C6.94751 2.12501 6.4176 2.3445 6.0269 2.7352C5.6362 3.1259 5.41671 3.6558 5.41671 4.20834V10.7688L4.52504 11.3906ZM6.45837 11.6313V4.20834H8.54171V11.6313C9.52138 11.8872 10.3744 12.491 10.9415 13.3299C11.5086 14.1687 11.751 15.1853 11.6234 16.1898C11.4958 17.1943 11.007 18.118 10.2483 18.7885C9.48947 19.459 8.5126 19.8304 7.50004 19.8333C6.48518 19.8343 5.50484 19.4649 4.74303 18.7944C3.98122 18.1239 3.49032 17.1984 3.36246 16.1916C3.2346 15.1849 3.47857 14.166 4.04859 13.3264C4.61861 12.4867 5.47548 11.884 6.45837 11.6313ZM7.50004 17.75C8.05258 17.75 8.58248 17.5305 8.97318 17.1398C9.36388 16.7491 9.58337 16.2192 9.58337 15.6667C9.58337 15.1141 9.36388 14.5842 8.97318 14.1935C8.58248 13.8028 8.05258 13.5833 7.50004 13.5833C6.94751 13.5833 6.4176 13.8028 6.0269 14.1935C5.6362 14.5842 5.41671 15.1141 5.41671 15.6667C5.41671 16.2192 5.6362 16.7491 6.0269 17.1398C6.4176 17.5305 6.94751 17.75 7.50004 17.75Z" fill="black"/>
</svg>
