<svg width="25" height="25" viewBox="0 0 25 25" fill="none" xmlns="http://www.w3.org/2000/svg">
<path d="M12.5 1.30209C12.9315 1.30209 13.2813 1.65186 13.2813 2.08334V3.125C13.2813 3.55648 12.9315 3.90625 12.5 3.90625C12.0686 3.90625 11.7188 3.55648 11.7188 3.125V2.08334C11.7188 1.65186 12.0686 1.30209 12.5 1.30209Z" fill="black"/>
<path d="M12.5 6.51042C9.19209 6.51042 6.51046 9.19205 6.51046 12.5C6.51046 15.808 9.19209 18.4896 12.5 18.4896C15.808 18.4896 18.4896 15.808 18.4896 12.5C18.4896 9.19205 15.808 6.51042 12.5 6.51042Z" fill="black"/>
<path d="M5.68679 4.5819C5.38169 4.27681 4.88703 4.27681 4.58193 4.5819C4.27684 4.887 4.27684 5.38166 4.58193 5.68676L5.3185 6.42333C5.6236 6.72843 6.11826 6.72843 6.42336 6.42333C6.72845 6.11823 6.72845 5.62357 6.42336 5.31847L5.68679 4.5819Z" fill="black"/>
<path d="M23.698 12.5C23.698 12.9315 23.3482 13.2813 22.9167 13.2813H21.875C21.4436 13.2813 21.0938 12.9315 21.0938 12.5C21.0938 12.0685 21.4436 11.7188 21.875 11.7188H22.9167C23.3482 11.7188 23.698 12.0685 23.698 12.5Z" fill="black"/>
<path d="M20.4181 5.68675C20.7232 5.38165 20.7232 4.88699 20.4181 4.58189C20.113 4.2768 19.6184 4.2768 19.3133 4.58189L18.5767 5.31846C18.2716 5.62356 18.2716 6.11822 18.5767 6.42332C18.8818 6.72842 19.3765 6.72842 19.6816 6.42332L20.4181 5.68675Z" fill="black"/>
<path d="M12.5 21.0938C12.9315 21.0938 13.2813 21.4435 13.2813 21.875V22.9167C13.2813 23.3481 12.9315 23.6979 12.5 23.6979C12.0686 23.6979 11.7188 23.3481 11.7188 22.9167V21.875C11.7188 21.4435 12.0686 21.0938 12.5 21.0938Z" fill="black"/>
<path d="M19.6816 18.5767C19.3765 18.2716 18.8819 18.2716 18.5768 18.5767C18.2717 18.8818 18.2717 19.3765 18.5768 19.6815L19.3134 20.4181C19.6185 20.7232 20.1131 20.7232 20.4182 20.4181C20.7233 20.113 20.7233 19.6184 20.4182 19.3133L19.6816 18.5767Z" fill="black"/>
<path d="M3.90629 12.5C3.90629 12.9315 3.55651 13.2813 3.12504 13.2813H2.08337C1.6519 13.2813 1.30212 12.9315 1.30212 12.5C1.30212 12.0685 1.6519 11.7188 2.08337 11.7188H3.12504C3.55651 11.7188 3.90629 12.0685 3.90629 12.5Z" fill="black"/>
<path d="M6.42329 19.6815C6.72838 19.3764 6.72838 18.8818 6.42329 18.5767C6.11819 18.2716 5.62353 18.2716 5.31843 18.5767L4.58186 19.3133C4.27677 19.6184 4.27677 20.113 4.58186 20.4181C4.88696 20.7232 5.38162 20.7232 5.68672 20.4181L6.42329 19.6815Z" fill="black"/>
</svg>
