<svg width="20" height="17" viewBox="0 0 20 17" fill="none" xmlns="http://www.w3.org/2000/svg">
<path d="M0.999023 0.930145C0.447023 0.930145 -0.000976562 1.50528 -0.000976562 2.21393C-0.000976562 2.92258 0.447023 3.49771 0.999023 3.49771H18.999C19.551 3.49771 19.999 2.92258 19.999 2.21393C19.999 1.50528 19.551 0.930145 18.999 0.930145H0.999023ZM0.999023 7.34906C0.447023 7.34906 -0.000976562 7.9242 -0.000976562 8.63285C-0.000976562 9.3415 0.447023 9.91663 0.999023 9.91663H18.999C19.551 9.91663 19.999 9.3415 19.999 8.63285C19.999 7.9242 19.551 7.34906 18.999 7.34906H0.999023ZM0.999023 13.768C0.447023 13.768 -0.000976562 14.3431 -0.000976562 15.0518C-0.000976562 15.7604 0.447023 16.3356 0.999023 16.3356H18.999C19.551 16.3356 19.999 15.7604 19.999 15.0518C19.999 14.3431 19.551 13.768 18.999 13.768H0.999023Z" fill="#2A343D"/>
</svg>
